# Blender 4.5.5 LTS
# www.blender.org
mtllib FatTom.mtl
o M_FatTom
v 0.162935 1.127426 -0.168566
v 0.255055 1.126892 -0.183964
v 0.164284 1.136878 -0.168566
v 0.250176 1.117962 -0.183964
v 0.058497 1.128073 -0.168566
v 0.061196 1.139242 -0.168566
v 0.357360 1.086382 -0.183964
v -0.788240 0.734941 -0.013627
v -1.096198 0.732050 0.011192
v -1.083915 0.817809 0.019956
v -0.784971 0.739240 -0.075704
v -1.098439 0.849988 -0.096145
v -0.783525 0.731504 -0.137357
v -1.074244 0.820413 -0.182869
v -1.021480 0.720204 -0.175507
v -1.066304 0.722582 -0.170472
v -1.019399 0.683497 -0.186100
v -0.803947 0.633204 -0.116363
v -1.080987 0.584376 -0.209260
v -1.007679 0.672994 -0.010507
v -0.805654 0.635107 -0.028830
v -0.803947 0.633204 -0.116363
v -1.023448 0.676197 -0.114943
v -1.121207 0.722933 -0.094180
v -1.187282 0.807680 -0.174180
v -1.229475 0.825910 -0.089092
v -1.229475 0.825910 -0.089092
v -1.198915 0.801938 0.007476
v -1.185213 0.755038 -0.000910
v -1.198569 0.730570 -0.086338
v -1.121207 0.722933 -0.094180
v -1.023448 0.676197 -0.114943
v -1.019399 0.683497 -0.186100
v -1.172514 0.761028 -0.161959
v -1.187282 0.807680 -0.174180
v -1.198569 0.730570 -0.086338
v -1.198569 0.730570 -0.086338
v -1.019399 0.683497 -0.186100
v -1.100278 0.602890 -0.165923
v -1.080987 0.584376 -0.209260
v -1.185213 0.755038 -0.000910
v -0.803947 0.633204 -0.116363
v -0.999308 0.582371 -0.141614
v -1.023448 0.676197 -0.114943
v -1.080720 0.542309 -0.171524
v -0.803947 0.633204 -0.116363
v -1.100278 0.602890 -0.165923
v -1.080720 0.542309 -0.171524
v -1.023448 0.676197 -0.114943
v -1.080987 0.584376 -0.209260
v -1.080720 0.542309 -0.171524
v -0.803947 0.633204 -0.116363
v -1.080987 0.584376 -0.209260
v -0.340616 -0.931474 0.174593
v -0.355118 -1.011007 0.142566
v -0.402437 -1.004168 0.131617
v -0.408560 -0.937096 0.102953
v -0.412887 -0.999174 0.075862
v -0.340616 -0.931474 0.174593
v -0.404230 -0.950258 0.026013
v -0.371773 -0.988557 0.017883
v -0.364489 -0.951504 0.005325
v -0.340616 -0.931474 0.174593
v -0.327865 -1.009046 0.076080
v -0.294357 -0.949684 0.064483
v -0.371773 -0.988557 0.017883
v -0.364489 -0.951504 0.005325
v -0.362972 -1.132070 0.185564
v -0.355118 -1.011007 0.142566
v -0.301026 -1.137842 0.163557
v -0.402437 -1.004168 0.131617
v -0.355118 -1.011007 0.142566
v -0.423986 -1.126378 0.165530
v -0.449701 -1.123981 0.063052
v -0.412887 -0.999174 0.075862
v -0.585966 -1.111274 -0.221619
v -0.546988 -1.114903 -0.275263
v -0.497630 -0.969703 -0.257772
v -0.371773 -0.988557 0.017883
v -0.497630 -0.969703 -0.257772
v -0.497630 -0.969703 -0.257772
v -0.383982 -1.003858 -0.261090
v -0.327865 -1.009046 0.076080
v -0.385150 -1.129993 -0.285688
v -0.385150 -1.129993 -0.285688
v -0.311413 -1.136873 0.063732
v -0.355118 -1.011007 0.142566
v -0.546988 -1.114903 -0.275263
v -1.096198 0.732050 0.011192
v -1.185213 0.755038 -0.000910
v -1.229475 0.825910 -0.089092
v -1.198569 0.730570 -0.086338
v -0.449701 -1.123981 0.063052
v -0.301026 -1.137842 0.163557
v -0.311413 -1.136873 0.063732
v -0.423986 -1.126378 0.165530
v -0.362972 -1.132070 0.185564
v -0.585966 -1.111274 -0.221619
v -0.385150 -1.129993 -0.285688
v -0.546988 -1.114903 -0.275263
v -0.013014 1.214336 -0.175507
v -0.055073 1.169971 -0.212703
v -0.013014 1.179603 -0.259919
v -0.114261 1.179891 -0.147737
v -0.094845 1.431758 -0.171167
v -0.013014 1.443303 -0.178371
v -0.198031 1.372687 -0.109050
v -0.229941 1.204464 -0.121274
v -0.086003 1.484753 -0.128228
v -0.148898 1.449525 -0.104651
v -0.013014 1.491806 -0.143106
v -0.289906 1.227004 0.014969
v -0.239172 1.387740 0.007709
v -0.165722 1.469632 -0.013466
v -0.086362 1.512074 -0.041894
v -0.013014 1.525189 -0.053259
v -0.187716 1.445517 0.106523
v -0.209194 1.419813 0.134224
v -0.089166 1.521148 0.068727
v -0.013014 1.535730 0.053541
v -0.013014 1.535730 0.053541
v -0.073382 1.497484 0.129837
v -0.138898 1.422070 0.178430
v -0.013014 1.520075 0.108334
v -0.013014 1.535730 0.053541
v -0.013014 1.438147 0.224470
v -0.265397 1.223700 0.159709
v -0.330144 1.245868 0.014969
v -0.370024 1.188886 0.123969
v -0.440488 1.102519 0.155820
v -0.429140 1.195524 0.014969
v -0.485165 1.108324 0.024892
v -0.428704 1.040194 0.119744
v -0.442616 0.993724 0.003390
v -0.349715 0.973077 0.005186
v -0.359374 0.986281 0.067576
v -0.219233 0.978162 0.067576
v -0.210502 0.967031 -0.005228
v -0.092787 0.984306 0.079963
v -0.201148 1.040129 0.163523
v -0.117570 1.022332 0.162059
v -0.013014 1.019935 0.160493
v -0.013014 1.099564 0.216734
v -0.165463 1.084370 0.213487
v -0.013014 0.973808 0.113913
v -0.117487 1.244048 0.228863
v -0.013014 1.258974 0.251932
v -0.013014 1.438147 0.224470
v -0.264183 1.031247 0.142198
v -0.089666 0.986517 -0.000987
v -0.187444 1.119188 0.160353
v -0.299839 1.101491 0.200268
v -0.193048 0.988227 -0.074845
v -0.058153 0.995098 -0.058999
v -0.076118 0.997648 -0.108524
v -0.344848 0.995081 -0.081766
v -0.373885 1.080519 -0.133783
v -0.357298 1.169115 -0.130095
v -0.243898 1.071235 -0.189381
v -0.092410 1.105080 -0.156177
v -0.071688 1.118652 -0.185721
v -0.107299 1.038568 -0.116130
v -0.013014 1.017019 -0.182191
v -0.013014 1.107493 -0.221847
v -0.013014 1.179603 -0.259919
v -0.148948 1.032183 -0.116130
v -0.076118 0.997648 -0.108524
v -0.304602 1.467070 0.231296
v -0.187716 1.445517 0.106523
v -0.301631 1.503783 0.253173
v -0.398774 1.481051 0.343002
v -0.209194 1.419813 0.134224
v -0.187716 1.445517 0.106523
v -0.304602 1.467070 0.231296
v -0.398774 1.481051 0.343002
v -0.403359 1.462690 0.307456
v -0.519467 1.435033 0.379621
v -0.519467 1.435033 0.379621
v -0.521195 1.416417 0.365760
v -0.551088 1.397083 0.375806
v -0.138898 1.422070 0.178430
v -0.301631 1.503783 0.253173
v -0.187716 1.445517 0.106523
v -0.261977 1.477581 0.286422
v -0.301631 1.503783 0.253173
v -0.398774 1.481051 0.343002
v -0.237385 1.284017 0.323865
v -0.117487 1.244048 0.228863
v -0.380898 1.351731 0.383748
v -0.384379 1.214853 0.342881
v -0.474377 1.336244 0.359516
v -0.500736 1.390216 0.401581
v -0.519467 1.435033 0.379621
v -0.398774 1.481051 0.343002
v -0.244080 1.101904 0.292027
v -0.165463 1.084370 0.213487
v -0.551088 1.397083 0.375806
v -0.403359 1.462690 0.307456
v -0.500450 1.390216 0.370202
v -0.363116 1.321375 0.332113
v -0.304602 1.467070 0.231296
v -0.273542 1.279418 0.264543
v -0.384379 1.214853 0.342881
v -0.244080 1.101904 0.292027
v -0.209194 1.419813 0.134224
v -0.265397 1.223700 0.159709
v -0.165463 1.084370 0.213487
v -0.521195 1.416417 0.365760
v -0.551088 1.397083 0.375806
v -0.474377 1.336244 0.359516
v -0.384379 1.214853 0.342881
v -0.201148 1.040129 0.163523
v -0.176901 1.022801 0.210710
v -0.117570 1.022332 0.162059
v -0.187444 1.119188 0.160353
v -0.176901 1.022801 0.210710
v -0.165463 1.084370 0.213487
v -0.117570 1.022332 0.162059
v -0.246276 1.101904 0.249849
v -0.176901 1.022801 0.210710
v -0.266566 1.016973 0.254201
v -0.275130 1.056203 0.253444
v -0.265397 1.223700 0.159709
v -0.312845 1.009870 0.255597
v -0.266566 1.016973 0.249980
v -0.275130 1.056203 0.249222
v -0.266566 1.016973 0.249980
v -0.187444 1.119188 0.160353
v -0.187444 1.119188 0.160353
v -0.307855 1.098515 0.242945
v -0.310029 1.148283 0.209523
v -0.299839 1.101491 0.200268
v -0.309943 1.148283 0.213745
v -0.326030 1.036420 0.255569
v -0.326030 1.036420 0.255569
v -0.346033 1.098663 0.231055
v -0.306948 1.098971 0.247174
v -0.246276 1.101904 0.249849
v -0.275130 1.056203 0.253444
v -0.265397 1.223700 0.159709
v -0.326030 1.036420 0.255569
v -0.307855 1.098515 0.242945
v -0.310029 1.148283 0.209523
v -0.306948 1.098971 0.247174
v -0.275130 1.056203 0.253444
v -0.326030 1.036420 0.255569
v -0.013014 0.988086 -0.108524
v -0.134947 0.969482 -0.138787
v -0.013014 0.965243 -0.230706
v -0.058153 0.995098 -0.058999
v -0.210502 0.961610 -0.005228
v -0.089666 0.986517 -0.000987
v -0.218936 0.961411 0.144374
v -0.092787 0.984306 0.079963
v -0.013014 0.953638 0.236059
v -0.013014 0.973808 0.113913
v -0.439545 0.888976 -0.136010
v -0.379175 0.888976 -0.254492
v -0.553186 0.746229 -0.369533
v -0.666249 0.737675 -0.172698
v -0.772029 0.580092 -0.178832
v -0.668517 0.580020 -0.469403
v -0.912841 0.307581 -0.291891
v -0.780820 0.307581 -0.550996
v -0.958332 0.005580 -0.306672
v -0.819517 0.005580 -0.579111
v -0.912841 -0.296420 -0.291891
v -0.780820 -0.296420 -0.550996
v -0.780820 -0.568859 -0.248995
v -0.668517 -0.568859 -0.469403
v -0.575194 -0.785068 -0.182183
v -0.493600 -0.785068 -0.342319
v -0.424912 -0.899206 -0.009990
v -0.379353 -0.896124 -0.215589
v -0.366516 -0.785068 -0.469403
v -0.206381 -0.785068 -0.550996
v -0.013015 -0.923882 -0.299282
v -0.013015 -0.785068 -0.579111
v -0.603308 -0.785068 -0.004671
v -0.426130 -0.897683 0.103882
v -0.575193 -0.785068 0.172840
v -0.493600 -0.785068 0.332976
v -0.493600 -0.568859 -0.644319
v -0.273193 -0.568859 -0.756622
v -0.013015 -0.568859 -0.795320
v -0.780820 -0.568859 0.239653
v -0.668516 -0.568859 0.460060
v -0.819516 -0.568859 -0.004671
v -0.316089 -0.296421 -0.888643
v -0.575194 -0.296421 -0.756623
v -0.013015 -0.296421 -0.934134
v -0.912840 -0.296420 0.282549
v -0.780819 -0.296420 0.541653
v -0.958331 -0.296420 -0.004671
v -0.603309 0.005580 -0.795320
v -0.330870 0.005580 -0.934134
v -0.013015 0.005580 -0.981967
v -0.013015 -0.296421 -0.934134
v -0.958331 0.005580 0.297329
v -0.819516 0.005581 0.569768
v -1.006163 0.005580 -0.004671
v -0.575194 0.307581 -0.756623
v -0.316089 0.307581 -0.888643
v -0.013015 0.307581 -0.934135
v -0.912840 0.307581 0.282548
v -0.780819 0.307581 0.541653
v -0.958331 0.307581 -0.004671
v -0.493600 0.580019 -0.644320
v -0.273193 0.580019 -0.756623
v -0.013015 0.580019 -0.795320
v -0.780820 0.580020 0.239652
v -0.668516 0.580020 0.460060
v -0.575192 0.307581 0.747279
v -0.493600 0.580020 0.634976
v -0.788805 0.581952 0.012577
v -0.414125 0.746229 -0.506724
v -0.238899 0.746229 -0.594805
v -0.013015 0.746229 -0.625156
v -0.553185 0.746229 0.359462
v -0.414124 0.746229 0.496653
v -0.273192 0.580020 0.747279
v -0.238897 0.746229 0.584734
v -0.013014 0.580020 0.785976
v -0.013014 0.746229 0.615085
v -0.642467 0.746229 0.186593
v -0.679048 0.741499 0.020336
v -0.285147 0.867580 -0.348520
v -0.166665 0.867580 -0.408890
v -0.013015 0.867580 -0.429692
v -0.013014 0.888977 0.420347
v -0.166665 0.888977 0.399546
v -0.285147 0.888977 0.339176
v -0.379175 0.888977 0.245148
v -0.439544 0.888976 0.126666
v -0.460346 0.888976 -0.004672
v -0.803947 0.633204 -0.116363
v -0.783525 0.731504 -0.137357
v -0.803947 0.633204 -0.116363
v -0.784971 0.739240 -0.075704
v -0.788240 0.734941 -0.013627
v -0.805654 0.635107 -0.028830
v -0.803947 0.633204 -0.116363
v -0.788240 0.734941 -0.013627
v -0.281437 -0.919453 0.040589
v -0.322639 -0.909104 0.204879
v -0.013014 -0.923882 0.297329
v -0.013015 -0.923882 -0.299282
v -0.203211 -0.777190 0.551995
v -0.013014 -0.785067 0.569768
v -0.366516 -0.785068 0.460060
v -0.493600 -0.568859 0.634976
v -0.275655 -0.544354 0.801035
v -0.575192 -0.296420 0.747280
v -0.603308 0.005581 0.785977
v -0.316351 -0.290636 0.881536
v -0.317389 0.005581 0.919918
v -0.316088 0.307581 0.879300
v -0.013014 0.307581 0.924791
v -0.013014 0.580020 0.785976
v -0.013014 0.004988 0.970348
v -0.012740 -0.383927 0.938583
v -0.099118 -0.471600 0.896744
v -0.012740 -0.383927 0.938583
v -0.294357 -0.949684 0.064483
v -0.322639 -0.909104 0.204879
v -0.281437 -0.919453 0.040589
v -0.340616 -0.931474 0.174593
v -0.364489 -0.951504 0.005325
v -0.424912 -0.899206 -0.009990
v -0.404230 -0.950258 0.026013
v -0.424912 -0.899206 -0.009990
v -0.408560 -0.937096 0.102953
v -0.424912 -0.899206 -0.009990
v -0.426130 -0.897683 0.103882
v -0.340616 -0.931474 0.174593
v -0.426130 -0.897683 0.103882
v -0.322639 -0.909104 0.204879
v -0.408560 -0.937096 0.102953
v -0.003958 -0.461768 0.989508
v 0.040764 -0.479601 0.925428
v -0.004455 -0.622572 1.037829
v -0.012740 -0.383927 0.938583
v 0.079850 -0.471605 0.896913
v -0.052691 -0.479989 0.925694
v -0.003958 -0.461768 0.989508
v -0.004455 -0.622572 1.037829
v -0.012740 -0.383927 0.938583
v -0.099118 -0.471600 0.896744
v 0.040764 -0.479601 0.925428
v -0.052691 -0.479989 0.925694
v -0.004455 -0.622572 1.037829
v -0.099118 -0.471600 0.896744
v 0.079850 -0.471605 0.896913
v 0.762144 0.735472 -0.012823
v 1.057886 0.817809 0.019954
v 1.070169 0.732050 0.011191
v 0.758832 0.739828 -0.075723
v 1.072410 0.849988 -0.096147
v 0.757367 0.731990 -0.138192
v 1.048215 0.820413 -0.182870
v 0.995451 0.720204 -0.175508
v 1.040275 0.722582 -0.170473
v 0.993370 0.683497 -0.186101
v 0.778059 0.632389 -0.116919
v 1.054958 0.584376 -0.209262
v 0.981650 0.672994 -0.010509
v 0.779789 0.634317 -0.028228
v 0.778059 0.632389 -0.116919
v 0.997419 0.676196 -0.114944
v 1.095178 0.722933 -0.094182
v 1.161253 0.807680 -0.174182
v 1.203447 0.825910 -0.089093
v 1.172886 0.801938 0.007474
v 1.159184 0.755038 -0.000911
v 1.172541 0.730570 -0.086339
v 1.095178 0.722933 -0.094182
v 0.997419 0.676196 -0.114944
v 0.993370 0.683497 -0.186101
v 1.146485 0.761028 -0.161961
v 1.161253 0.807680 -0.174182
v 1.172541 0.730570 -0.086339
v 1.172541 0.730570 -0.086339
v 0.993370 0.683497 -0.186101
v 1.074249 0.602890 -0.165925
v 1.054958 0.584376 -0.209262
v 0.973279 0.582371 -0.141615
v 0.997419 0.676196 -0.114944
v 1.054691 0.542309 -0.171525
v 1.054958 0.584376 -0.209262
v 0.778059 0.632389 -0.116919
v 0.997419 0.676196 -0.114944
v 1.054691 0.542309 -0.171525
v 0.778059 0.632389 -0.116919
v 1.203447 0.825910 -0.089093
v 1.159184 0.755038 -0.000911
v 1.070169 0.732050 0.011191
v 1.159184 0.755038 -0.000911
v 1.054691 0.542309 -0.171525
v 1.054958 0.584376 -0.209262
v 0.778059 0.632389 -0.116919
v 0.314588 -0.931474 0.174592
v 0.376408 -1.004168 0.131617
v 0.329089 -1.011007 0.142565
v 0.382531 -0.937096 0.102952
v 0.314588 -0.931474 0.174592
v 0.386858 -0.999174 0.075862
v 0.378202 -0.950258 0.026013
v 0.345744 -0.988557 0.017883
v 0.338460 -0.951504 0.005325
v 0.314588 -0.931474 0.174592
v 0.301837 -1.009046 0.076080
v 0.268328 -0.949684 0.064483
v 0.345744 -0.988557 0.017883
v 0.338460 -0.951504 0.005325
v 0.336944 -1.132070 0.185564
v 0.274998 -1.137842 0.163557
v 0.329089 -1.011007 0.142565
v 0.376408 -1.004168 0.131617
v 0.397957 -1.126378 0.165530
v 0.329089 -1.011007 0.142565
v 0.423672 -1.123981 0.063052
v 0.386858 -0.999174 0.075862
v 0.559937 -1.111274 -0.221620
v 0.520959 -1.114903 -0.275264
v 0.471600 -0.969703 -0.257772
v 0.345744 -0.988557 0.017883
v 0.471600 -0.969703 -0.257772
v 0.357953 -1.003858 -0.261091
v 0.471600 -0.969703 -0.257772
v 0.301837 -1.009046 0.076080
v 0.359120 -1.129993 -0.285688
v 0.520959 -1.114903 -0.275264
v 0.359120 -1.129993 -0.285688
v 0.285385 -1.136873 0.063732
v 0.329089 -1.011007 0.142565
v 1.172541 0.730570 -0.086339
v 1.203447 0.825910 -0.089093
v 0.423672 -1.123981 0.063052
v 0.274998 -1.137842 0.163557
v 0.397957 -1.126378 0.165530
v 0.285385 -1.136873 0.063732
v 0.336944 -1.132070 0.185564
v 0.559937 -1.111274 -0.221620
v 0.359120 -1.129993 -0.285688
v 0.520959 -1.114903 -0.275264
v -0.013014 1.214336 -0.175507
v 0.029044 1.169971 -0.212703
v 0.088232 1.179891 -0.147737
v -0.013014 1.179603 -0.259919
v 0.068816 1.431758 -0.171167
v -0.013014 1.443303 -0.178371
v 0.172002 1.372687 -0.109050
v 0.203912 1.204464 -0.121274
v 0.059975 1.484753 -0.128229
v 0.122870 1.449525 -0.104652
v -0.013014 1.491806 -0.143106
v 0.263877 1.227004 0.014968
v 0.213143 1.387740 0.007709
v 0.139694 1.469632 -0.013467
v 0.060333 1.512074 -0.041894
v -0.013014 1.525189 -0.053259
v 0.161688 1.445517 0.106523
v 0.168622 1.413633 0.131383
v 0.063137 1.521148 0.068727
v -0.013014 1.535730 0.053541
v -0.013014 1.535730 0.053541
v 0.047354 1.497484 0.129837
v 0.112869 1.422070 0.178430
v -0.013014 1.520075 0.108334
v -0.013014 1.535730 0.053541
v -0.013014 1.438147 0.224470
v 0.239368 1.223700 0.159709
v 0.304116 1.245868 0.014968
v 0.343996 1.188886 0.123969
v 0.414459 1.102519 0.155820
v 0.403112 1.195524 0.014968
v 0.459137 1.108324 0.024891
v 0.402675 1.040194 0.119743
v 0.416587 0.993724 0.003389
v 0.323686 0.973077 0.005185
v 0.333345 0.986281 0.067576
v 0.193204 0.978162 0.067576
v 0.184473 0.967031 -0.005229
v 0.066758 0.984306 0.079962
v 0.175119 1.040129 0.163522
v 0.091541 1.022332 0.162059
v -0.013014 1.019935 0.160493
v -0.013014 1.099564 0.216734
v 0.139435 1.084370 0.213487
v -0.013014 0.973808 0.113913
v 0.091459 1.244048 0.228863
v -0.013014 1.258974 0.251932
v -0.013014 1.438147 0.224470
v 0.238155 1.031247 0.142198
v 0.063638 0.986517 -0.000987
v 0.161415 1.119188 0.160353
v 0.273811 1.101491 0.200268
v 0.167020 0.988227 -0.074846
v 0.032124 0.995098 -0.058999
v 0.050090 0.998748 -0.108524
v 0.318819 0.995081 -0.081766
v 0.347856 1.080519 -0.133784
v 0.331269 1.169115 -0.130095
v 0.217869 1.071235 -0.189381
v 0.066381 1.105080 -0.156177
v 0.045659 1.118652 -0.185721
v 0.081270 1.038568 -0.116130
v -0.013014 1.017019 -0.182191
v -0.013014 1.107493 -0.221847
v -0.013014 1.179603 -0.259919
v 0.122919 1.032183 -0.116130
v 0.050090 0.998748 -0.108524
v 0.280239 1.471744 0.233612
v 0.161688 1.445517 0.106523
v 0.168622 1.413633 0.131383
v 0.275603 1.503783 0.253173
v 0.161688 1.445517 0.106523
v 0.372745 1.481051 0.343001
v 0.280239 1.471744 0.233612
v 0.378996 1.458985 0.309772
v 0.372745 1.481051 0.343001
v 0.493438 1.435033 0.379620
v 0.495167 1.416417 0.365759
v 0.525060 1.397083 0.375805
v 0.112869 1.422070 0.178430
v 0.275603 1.503783 0.253173
v 0.235949 1.477581 0.286422
v 0.372745 1.481051 0.343001
v 0.211357 1.284017 0.323865
v 0.091459 1.244048 0.228863
v 0.354870 1.351731 0.383748
v 0.358351 1.214853 0.342881
v 0.448349 1.321079 0.359516
v 0.474708 1.390216 0.401580
v 0.493438 1.435033 0.379620
v 0.372745 1.481051 0.343001
v 0.218052 1.101904 0.292026
v 0.139435 1.084370 0.213487
v 0.525060 1.397083 0.375805
v 0.161688 1.445517 0.106523
v 0.275603 1.503783 0.253173
v 0.378996 1.458985 0.309772
v 0.337088 1.321375 0.332112
v 0.474421 1.390216 0.370201
v 0.280239 1.471744 0.233612
v 0.247514 1.279418 0.264542
v 0.358351 1.214853 0.342881
v 0.218052 1.101904 0.292026
v 0.168622 1.413633 0.131383
v 0.239368 1.223700 0.159709
v 0.139435 1.084370 0.213487
v 0.495167 1.416417 0.365759
v 0.525060 1.397083 0.375805
v 0.448349 1.321079 0.359516
v 0.358351 1.214853 0.342881
v 0.175119 1.040129 0.163522
v 0.150873 1.022801 0.210710
v 0.161415 1.119188 0.160353
v 0.091541 1.022332 0.162059
v 0.150873 1.022801 0.210710
v 0.091541 1.022332 0.162059
v 0.139435 1.084370 0.213487
v 0.220247 1.101904 0.249849
v 0.150873 1.022801 0.210710
v 0.240537 1.016973 0.254201
v 0.249101 1.056203 0.253444
v 0.239368 1.223700 0.159709
v 0.286817 1.009870 0.255596
v 0.240537 1.016973 0.249979
v 0.249101 1.056203 0.249222
v 0.240537 1.016973 0.249979
v 0.161415 1.119188 0.160353
v 0.161415 1.119188 0.160353
v 0.281827 1.098515 0.242945
v 0.284000 1.148283 0.209523
v 0.273811 1.101491 0.200268
v 0.283915 1.148283 0.213744
v 0.300001 1.036420 0.255568
v 0.300001 1.036420 0.255568
v 0.320005 1.098663 0.231055
v 0.280920 1.098971 0.247173
v 0.220247 1.101904 0.249849
v 0.249101 1.056203 0.253444
v 0.239368 1.223700 0.159709
v 0.300001 1.036420 0.255568
v 0.281827 1.098515 0.242945
v 0.284000 1.148283 0.209523
v 0.280920 1.098971 0.247173
v 0.300001 1.036420 0.255568
v 0.249101 1.056203 0.253444
v -0.013014 0.988086 -0.108524
v 0.108918 0.969482 -0.138787
v 0.032124 0.995098 -0.058999
v -0.013014 0.965243 -0.230706
v 0.184473 0.961610 -0.005229
v 0.063638 0.986517 -0.000987
v 0.192908 0.961411 0.144374
v 0.066758 0.984306 0.079962
v -0.013014 0.953638 0.236059
v 0.413516 0.888976 -0.136011
v 0.353146 0.888976 -0.254493
v 0.527156 0.746229 -0.369534
v 0.640220 0.737675 -0.172699
v 0.746000 0.580092 -0.178833
v 0.642488 0.580019 -0.469404
v 0.886811 0.307581 -0.291892
v 0.754791 0.307581 -0.550997
v 0.932303 0.005580 -0.306673
v 0.793488 0.005580 -0.579112
v 0.886811 -0.296420 -0.291892
v 0.754791 -0.296420 -0.550997
v 0.754791 -0.568859 -0.248996
v 0.642488 -0.568859 -0.469403
v 0.549165 -0.785068 -0.182184
v 0.467571 -0.785068 -0.342319
v 0.398883 -0.899206 -0.009990
v 0.353324 -0.896124 -0.215589
v 0.340487 -0.785068 -0.469403
v 0.180351 -0.785068 -0.550996
v -0.013015 -0.923882 -0.299282
v -0.013015 -0.785068 -0.579111
v 0.577279 -0.785068 -0.004672
v 0.400101 -0.897683 0.103881
v 0.549164 -0.785068 0.172840
v 0.467571 -0.785068 0.332975
v 0.467571 -0.568859 -0.644320
v 0.247163 -0.568859 -0.756623
v -0.013015 -0.568859 -0.795320
v 0.754791 -0.568859 0.239652
v 0.642488 -0.568859 0.460059
v 0.793487 -0.568859 -0.004672
v 0.290059 -0.296421 -0.888644
v 0.549164 -0.296421 -0.756623
v -0.013015 -0.296421 -0.934134
v 0.886811 -0.296420 0.282548
v 0.754791 -0.296420 0.541652
v 0.932302 -0.296420 -0.004672
v 0.577279 0.005580 -0.795321
v 0.304840 0.005580 -0.934135
v -0.013015 0.005580 -0.981967
v -0.013015 -0.296421 -0.934134
v 0.932302 0.005580 0.297328
v 0.793488 0.005581 0.569767
v 0.980135 0.005580 -0.004672
v 0.549164 0.307581 -0.756623
v 0.290059 0.307581 -0.888644
v -0.013015 0.307581 -0.934135
v 0.886811 0.307581 0.282547
v 0.754791 0.307581 0.541652
v 0.932302 0.307581 -0.004673
v 0.467571 0.580019 -0.644320
v 0.247163 0.580019 -0.756623
v -0.013015 0.580019 -0.795320
v 0.754791 0.580020 0.239651
v 0.642488 0.580020 0.460059
v 0.549164 0.307581 0.747279
v 0.467572 0.580020 0.634975
v 0.762776 0.581952 0.012576
v 0.388096 0.746229 -0.506724
v 0.212869 0.746229 -0.594806
v -0.013015 0.746229 -0.625156
v 0.527157 0.746229 0.359462
v 0.388096 0.746229 0.496652
v 0.247164 0.580020 0.747279
v 0.212869 0.746229 0.584734
v -0.013014 0.580020 0.785976
v -0.013014 0.746229 0.615085
v 0.616439 0.746229 0.186592
v 0.653019 0.741499 0.020335
v 0.259118 0.867580 -0.348521
v 0.140636 0.867580 -0.408890
v -0.013015 0.867580 -0.429692
v -0.013014 0.888977 0.420347
v 0.140637 0.888977 0.399545
v 0.259119 0.888977 0.339176
v 0.353146 0.888977 0.245148
v 0.413516 0.888976 0.126666
v 0.434317 0.888976 -0.004672
v 0.778059 0.632389 -0.116919
v 0.757367 0.731990 -0.138192
v 0.758832 0.739828 -0.075723
v 0.762144 0.735472 -0.012823
v 0.778059 0.632389 -0.116919
v 0.779789 0.634317 -0.028228
v 0.778059 0.632389 -0.116919
v 0.762144 0.735472 -0.012823
v 0.255408 -0.919453 0.040589
v 0.296610 -0.909104 0.204879
v -0.013014 -0.923882 0.297329
v -0.013015 -0.923882 -0.299282
v 0.177183 -0.777190 0.551995
v -0.013014 -0.785067 0.569768
v 0.340487 -0.785068 0.460060
v 0.467572 -0.568859 0.634976
v 0.249627 -0.544354 0.801035
v 0.549164 -0.296420 0.747279
v 0.577280 0.005581 0.785976
v 0.290323 -0.290636 0.881536
v 0.291361 0.005581 0.919917
v 0.290060 0.307581 0.879299
v -0.013014 0.307581 0.924791
v -0.013014 0.580020 0.785976
v -0.013014 0.004988 0.970348
v -0.012740 -0.383927 0.938583
v -0.012740 -0.383927 0.938583
v 0.079850 -0.471605 0.896913
v -0.099118 -0.471600 0.896744
v 0.268328 -0.949684 0.064483
v 0.296610 -0.909104 0.204879
v 0.314588 -0.931474 0.174592
v 0.255408 -0.919453 0.040589
v 0.338460 -0.951504 0.005325
v 0.398883 -0.899206 -0.009990
v 0.378202 -0.950258 0.026013
v 0.398883 -0.899206 -0.009990
v 0.382531 -0.937096 0.102952
v 0.398883 -0.899206 -0.009990
v 0.400101 -0.897683 0.103881
v 0.314588 -0.931474 0.174592
v 0.400101 -0.897683 0.103881
v 0.382531 -0.937096 0.102952
v 0.296610 -0.909104 0.204879
v -0.013014 1.017019 -0.182191
v -0.076118 0.997648 -0.108524
v 0.050090 0.998748 -0.108524
v -0.058153 0.995098 -0.058999
v 0.032124 0.995098 -0.058999
v 0.032124 0.995098 -0.058999
v -0.058153 0.995098 -0.058999
v -0.013014 0.988086 -0.108524
v 0.177074 1.163901 -0.168566
v 0.291162 1.174574 -0.168566
v 0.175356 1.173327 -0.168566
v 0.289262 1.165163 -0.168566
v 0.058418 1.149480 -0.168566
v 0.057468 1.160772 -0.168566
v 0.407059 1.152303 -0.181098
v -0.201382 1.163901 -0.168566
v -0.315471 1.174574 -0.168566
v -0.199665 1.173327 -0.168566
v -0.313571 1.165163 -0.168566
v -0.082727 1.149480 -0.168566
v -0.081777 1.160772 -0.168566
v -0.431367 1.152303 -0.181097
v -0.187243 1.127426 -0.168566
v -0.279364 1.126892 -0.183963
v -0.188593 1.136878 -0.168566
v -0.274484 1.117962 -0.183963
v -0.082805 1.128073 -0.168566
v -0.085504 1.139242 -0.168566
v -0.381669 1.086382 -0.183963
v 0.177074 1.163901 -0.168566
v 0.291162 1.174574 -0.168566
v 0.289262 1.165163 -0.168566
v 0.175356 1.173327 -0.168566
v 0.058418 1.149480 -0.168566
v 0.057468 1.160772 -0.168566
v 0.407059 1.152303 -0.181098
v -0.201382 1.163901 -0.168566
v -0.315471 1.174574 -0.168566
v -0.313571 1.165163 -0.168566
v -0.199665 1.173327 -0.168566
v -0.082727 1.149480 -0.168566
v -0.081777 1.160772 -0.168566
v -0.431367 1.152303 -0.181097
v -0.187243 1.127426 -0.168566
v -0.279364 1.126892 -0.183963
v -0.274484 1.117962 -0.183963
v -0.188593 1.136878 -0.168566
v -0.082805 1.128073 -0.168566
v -0.085504 1.139242 -0.168566
v -0.381669 1.086382 -0.183963
v 0.162935 1.127426 -0.167817
v 0.255055 1.126892 -0.183215
v 0.250176 1.117962 -0.183215
v 0.164284 1.136878 -0.167817
v 0.058497 1.128073 -0.167817
v 0.061196 1.139242 -0.167817
v 0.357360 1.086382 -0.183215
vn -0.0775 0.0262 -0.9966
vn -0.0859 0.0291 -0.9959
vn -0.0692 0.0234 -0.9973
vn -0.1139 0.0386 -0.9927
vn -0.0000 -0.0000 -1.0000
vn 0.1613 0.8119 0.5611
vn -0.1895 -0.6041 0.7740
vn 0.0895 0.7603 0.6434
vn 0.2497 0.9683 0.0066
vn 0.1426 0.9898 0.0074
vn 0.0835 0.6498 -0.7555
vn 0.1906 0.7645 -0.6159
vn 0.1521 -0.0406 -0.9875
vn -0.0889 -0.3384 -0.9368
vn 0.0774 0.0550 -0.9955
vn -0.4294 -0.5864 -0.6868
vn 0.0115 -0.2649 -0.9642
vn -0.2081 -0.8727 0.4417
vn -0.5196 -0.6295 0.5777
vn -0.4294 -0.5864 -0.6869
vn -0.4395 -0.8452 0.3041
vn -0.3376 -0.9409 -0.0268
vn -0.4592 0.5082 -0.7286
vn -0.6433 0.7656 0.0026
vn -0.6433 0.7656 0.0025
vn -0.5020 0.6165 0.6066
vn -0.5170 -0.6030 0.6075
vn -0.5021 0.6165 0.6065
vn -0.6280 -0.7772 -0.0404
vn -0.6280 -0.7771 -0.0404
vn -0.0889 -0.3385 -0.9368
vn -0.4395 -0.8452 0.3042
vn -0.3376 -0.9409 -0.0269
vn 0.0775 0.0550 -0.9955
vn -0.4533 -0.5287 -0.7176
vn -0.4591 0.5082 -0.7287
vn -0.7698 0.1944 0.6080
vn -0.4394 -0.8452 0.3041
vn -0.7698 0.1944 0.6079
vn -0.4396 -0.8452 0.3041
vn 0.1219 -0.8532 0.5072
vn -0.4293 -0.5864 -0.6869
vn -0.4294 -0.5865 -0.6868
vn 0.1219 -0.8531 0.5072
vn 0.0285 -0.9581 0.2849
vn 0.0285 -0.9581 0.2850
vn 0.0114 -0.2648 -0.9642
vn -0.7854 0.2374 0.5717
vn 0.7237 0.1049 0.6821
vn 0.2174 -0.5564 0.8020
vn -0.7786 0.5774 0.2457
vn -0.9111 -0.1564 0.3814
vn -0.8652 -0.4016 -0.3003
vn 0.2662 0.9533 -0.1428
vn 0.3284 -0.3454 -0.8791
vn 0.9935 0.0611 -0.0960
vn 0.8775 -0.4632 -0.1243
vn 0.2662 0.9533 -0.1430
vn 0.6750 -0.6827 0.2798
vn 0.7237 0.1048 0.6821
vn -0.0329 0.1281 0.9912
vn -0.7853 0.2374 0.5718
vn -0.0330 0.1281 0.9912
vn -0.6289 -0.6099 0.4822
vn -0.4224 -0.8961 0.1366
vn -0.7787 0.5773 0.2457
vn -0.8127 -0.5651 0.1422
vn -0.8289 0.4375 -0.3485
vn -0.4896 0.8245 -0.2837
vn -0.4897 0.8245 -0.2836
vn -0.7787 0.5773 0.2456
vn 0.2662 0.9533 -0.1429
vn 0.7480 0.4805 -0.4578
vn 0.5259 -0.7509 -0.3995
vn -0.8289 0.4375 -0.3486
vn 0.6525 -0.7514 -0.0978
vn -0.1895 -0.6042 0.7740
vn 0.6525 -0.7514 -0.0977
vn -0.4223 -0.8961 0.1366
vn -0.6289 -0.6098 0.4822
vn 0.5259 -0.7508 -0.3996
vn -0.8289 0.4376 -0.3485
vn 0.0001 0.4105 -0.9119
vn -0.6618 0.3517 -0.6621
vn -0.0000 0.1146 -0.9934
vn -0.3323 0.0315 -0.9427
vn -0.3092 0.1081 -0.9448
vn -0.0000 0.0941 -0.9956
vn -0.6865 0.2150 -0.6947
vn -0.5014 0.3710 -0.7817
vn -0.3903 0.7783 -0.4918
vn -0.6622 0.6268 -0.4107
vn -0.0000 0.8314 -0.5557
vn -0.8999 0.4233 -0.1051
vn -0.9244 0.3663 -0.1061
vn -0.6614 0.7376 -0.1355
vn -0.3913 0.9065 -0.1583
vn -0.0001 0.9780 -0.2085
vn -0.4289 0.9012 0.0625
vn -0.9485 0.2255 -0.2224
vn -0.4155 0.8991 0.1375
vn -0.0001 0.9994 0.0342
vn -0.0000 0.9994 0.0342
vn -0.3044 0.7804 0.5462
vn 0.2782 0.5422 0.7929
vn -0.0000 0.8548 0.5189
vn -0.0000 0.9994 0.0343
vn -0.0000 0.3918 0.9200
vn -0.9674 0.2288 0.1085
vn -0.3069 0.9448 -0.1152
vn -0.4893 0.6815 0.5442
vn -0.6795 0.0432 0.7324
vn -0.6803 0.7172 -0.1508
vn -0.9815 0.1072 -0.1584
vn -0.5306 -0.6458 0.5491
vn -0.7707 -0.5861 -0.2500
vn -0.1292 -0.9916 0.0019
vn -0.1523 -0.8911 0.4276
vn -0.0172 -0.9310 0.3647
vn 0.0209 -0.9966 -0.0791
vn -0.1878 0.8435 0.5032
vn -0.0745 -0.7198 0.6901
vn -0.0625 -0.7252 0.6857
vn -0.0000 -0.7097 0.7045
vn -0.0000 -0.3049 0.9524
vn 0.0837 -0.3048 0.9487
vn 0.0001 0.8600 0.5102
vn 0.2767 0.0267 0.9606
vn -0.0000 0.0450 0.9990
vn -0.0609 -0.7051 0.7065
vn -0.4104 0.8864 -0.2143
vn -0.4221 -0.8053 0.4163
vn -0.1703 -0.0666 0.9831
vn 0.0263 -0.9199 -0.3912
vn -0.2885 0.8710 -0.3976
vn -0.2552 -0.8267 -0.5014
vn -0.4142 -0.7167 -0.5611
vn -0.7119 -0.0906 -0.6965
vn -0.5055 0.6139 -0.6064
vn -0.0236 -0.1578 -0.9872
vn -0.2411 -0.1252 -0.9624
vn -0.6505 -0.2970 -0.6990
vn -0.2737 -0.4724 -0.8378
vn 0.0001 -0.5914 -0.8064
vn 0.0001 -0.4425 -0.8968
vn -0.0000 0.4106 -0.9118
vn 0.1163 -0.6290 -0.7686
vn 0.0688 0.9846 -0.1604
vn -0.7656 -0.0235 -0.6429
vn 0.2697 0.5022 0.8216
vn -0.4288 0.9012 0.0624
vn -0.9485 0.2255 -0.2225
vn -0.6071 -0.0036 -0.7946
vn 0.2697 0.5023 0.8216
vn -0.7655 -0.0234 -0.6430
vn -0.0289 0.6581 0.7524
vn -0.6071 -0.0037 -0.7946
vn -0.4838 0.3850 -0.7860
vn -0.0288 0.6581 0.7524
vn -0.7733 -0.3969 0.4945
vn -0.4289 0.9012 0.0624
vn 0.2781 0.5422 0.7929
vn 0.5750 0.4716 0.6686
vn 0.2698 0.5022 0.8216
vn 0.5121 0.0301 0.8584
vn 0.2768 0.0267 0.9606
vn 0.2637 0.0447 0.9636
vn -0.3500 -0.6848 0.6392
vn -0.6880 -0.7133 -0.1336
vn 0.0421 0.0989 0.9942
vn -0.1192 -0.6640 0.7382
vn -0.5096 -0.1822 -0.8409
vn -0.2927 -0.1660 -0.9417
vn -0.7692 -0.1735 -0.6150
vn -0.3500 -0.6847 0.6393
vn -0.1192 -0.6639 0.7382
vn -0.9674 0.2288 0.1086
vn 0.0838 -0.3047 0.9488
vn -0.4837 0.3850 -0.7860
vn -0.6880 -0.7133 -0.1337
vn -0.4558 -0.8799 -0.1339
vn -0.0745 -0.7199 0.6901
vn -0.4559 -0.8799 -0.1339
vn -0.0626 -0.7251 0.6858
vn 0.0838 -0.3048 0.9487
vn -0.4559 -0.8799 -0.1338
vn 0.2842 0.4478 0.8477
vn 0.3390 -0.0730 0.9380
vn 0.2759 -0.0073 0.9612
vn -0.9691 -0.2391 0.0606
vn -0.4098 -0.3734 -0.8322
vn -0.4104 -0.3714 -0.8328
vn -0.4099 -0.3734 -0.8322
vn -0.4221 -0.8053 0.4164
vn -0.4220 -0.8053 0.4164
vn -0.4104 -0.3714 -0.8329
vn -0.3320 -0.4849 -0.8091
vn -0.4221 -0.8052 0.4164
vn -0.4217 -0.4031 -0.8122
vn -0.9674 0.2289 0.1086
vn -0.1703 -0.0665 0.9831
vn 0.2093 0.6087 0.7653
vn -0.7786 -0.6275 0.0104
vn -0.7785 -0.6276 0.0104
vn -0.9887 0.0317 0.1463
vn -0.1435 0.3960 0.9070
vn 0.2841 0.4479 0.8477
vn -0.9674 0.2288 0.1087
vn -0.1435 0.3959 0.9070
vn -0.3320 -0.4848 -0.8091
vn -0.1434 0.3960 0.9070
vn -0.7785 -0.6275 0.0104
vn -0.0000 0.9438 -0.3305
vn -0.2077 0.9562 -0.2061
vn -0.0000 0.9811 -0.1937
vn -0.2884 0.8711 -0.3975
vn -0.2585 0.9650 -0.0439
vn -0.2020 0.9646 0.1697
vn -0.0000 0.9619 0.2733
vn -0.0000 0.8601 0.5102
vn -0.4391 0.8866 -0.1454
vn -0.3595 0.8908 -0.2780
vn -0.5593 0.7339 -0.3855
vn -0.6167 0.7420 -0.2629
vn -0.8165 0.5090 -0.2723
vn -0.7017 0.5393 -0.4656
vn -0.9011 0.3253 -0.2868
vn -0.7785 0.3147 -0.5430
vn -0.9511 -0.0000 -0.3090
vn -0.8090 -0.0000 -0.5878
vn -0.9083 -0.2966 -0.2951
vn -0.7726 -0.2966 -0.5613
vn -0.7844 -0.5655 -0.2549
vn -0.6672 -0.5655 -0.4848
vn -0.6276 -0.7515 -0.2033
vn -0.5466 -0.7483 -0.3758
vn -0.4702 -0.8790 -0.0795
vn -0.2622 -0.9346 -0.2402
vn -0.3166 -0.8086 -0.4959
vn -0.1866 -0.8057 -0.5622
vn -0.0000 -0.9714 -0.2375
vn -0.0000 -0.7663 -0.6425
vn -0.6722 -0.7404 0.0005
vn -0.5301 -0.8231 0.2039
vn -0.6435 -0.7387 0.2005
vn -0.5219 -0.7585 0.3902
vn -0.4848 -0.5655 -0.6672
vn -0.2471 -0.5660 -0.7865
vn -0.0000 -0.5662 -0.8242
vn -0.7844 -0.5655 0.2549
vn -0.6672 -0.5655 0.4848
vn -0.8248 -0.5655 -0.0000
vn -0.2874 -0.2969 -0.9106
vn -0.5613 -0.2966 -0.7726
vn -0.0000 -0.2969 -0.9549
vn -0.9083 -0.2966 0.2951
vn -0.7726 -0.2966 0.5613
vn -0.9550 -0.2966 -0.0000
vn -0.5878 -0.0000 -0.8090
vn -0.3013 -0.0000 -0.9535
vn -0.9511 -0.0000 0.3090
vn -0.8090 -0.0000 0.5878
vn -1.0000 -0.0000 -0.0000
vn -0.5613 0.2966 -0.7726
vn -0.2874 0.2969 -0.9106
vn -0.0000 0.2969 -0.9549
vn -0.9085 0.3051 0.2856
vn -0.7726 0.2966 0.5613
vn -0.9489 0.3156 -0.0052
vn -0.4915 0.5428 -0.6810
vn -0.2462 0.5523 -0.7965
vn -0.0000 0.5568 -0.8306
vn -0.8099 0.5323 0.2465
vn -0.6812 0.5366 0.4980
vn -0.5578 0.2919 0.7770
vn -0.4912 0.5434 0.6808
vn -0.8642 0.5012 0.0435
vn -0.3773 0.7574 -0.5329
vn -0.1893 0.7685 -0.6112
vn -0.0000 0.7714 -0.6363
vn -0.5428 0.7423 0.3928
vn -0.3931 0.7459 0.5376
vn -0.2461 0.5530 0.7960
vn -0.1951 0.7513 0.6305
vn -0.0000 0.5576 0.8301
vn -0.0000 0.7536 0.6574
vn -0.6457 0.7353 0.2059
vn -0.6310 0.7717 0.0796
vn -0.2497 0.8789 -0.4064
vn -0.1528 0.8821 -0.4455
vn -0.0000 0.8626 -0.5060
vn -0.0000 0.8430 0.5379
vn -0.1505 0.8508 0.5035
vn -0.2669 0.8756 0.4026
vn -0.3744 0.8727 0.3133
vn -0.4517 0.8824 0.1317
vn -0.4689 0.8832 0.0010
vn -0.4293 -0.5865 -0.6868
vn 0.0834 0.6498 -0.7555
vn 0.2497 0.9683 0.0065
vn -0.5195 -0.6295 0.5777
vn -0.0166 -0.9993 -0.0324
vn -0.0000 -0.9585 0.2852
vn -0.2061 -0.9219 0.3280
vn -0.0000 -0.9714 -0.2374
vn -0.2025 -0.8194 0.5363
vn -0.0002 -0.8537 0.5208
vn -0.3838 -0.7696 0.5102
vn -0.5014 -0.5697 0.6512
vn -0.3450 -0.5473 0.7625
vn -0.5723 -0.2790 0.7711
vn -0.5806 0.0009 0.8142
vn -0.3903 -0.2356 0.8900
vn -0.3178 0.0256 0.9478
vn -0.2890 0.2889 0.9127
vn -0.0001 0.2911 0.9567
vn -0.0001 0.0543 0.9985
vn -0.0043 -0.1570 0.9876
vn -0.2040 -0.4987 0.8424
vn -0.0165 -0.9993 -0.0324
vn 0.8775 -0.4631 -0.1243
vn 0.3283 -0.3454 -0.8791
vn -0.4703 -0.8789 -0.0795
vn -0.4702 -0.8790 -0.0794
vn -0.8652 -0.4015 -0.3003
vn -0.2060 -0.9219 0.3280
vn -0.5301 -0.8231 0.2038
vn 0.2175 -0.5563 0.8020
vn -0.0376 -0.9993 0.0048
vn 0.8559 -0.5055 0.1088
vn 0.0195 0.3260 0.9452
vn -0.0043 -0.1569 0.9876
vn 0.2084 -0.4943 0.8439
vn -0.0376 -0.9993 0.0049
vn 0.0195 0.3259 0.9452
vn -0.8046 -0.5627 0.1897
vn -0.2039 -0.4987 0.8424
vn -0.8046 -0.5627 0.1896
vn 0.2083 -0.4943 0.8440
vn 0.1906 -0.6041 0.7738
vn -0.1601 0.8129 0.5600
vn -0.0904 0.7595 0.6442
vn -0.2492 0.9684 0.0065
vn -0.1419 0.9899 0.0073
vn -0.0845 0.6487 -0.7564
vn -0.1894 0.7654 -0.6151
vn -0.1494 -0.0421 -0.9879
vn 0.0905 -0.3390 -0.9364
vn -0.0758 0.0540 -0.9957
vn 0.4254 -0.5892 -0.6870
vn -0.0089 -0.2653 -0.9641
vn 0.2103 -0.8722 0.4416
vn 0.5150 -0.6317 0.5793
vn 0.4254 -0.5891 -0.6870
vn 0.4403 -0.8455 0.3022
vn 0.3376 -0.9409 -0.0268
vn 0.4592 0.5082 -0.7286
vn 0.6433 0.7656 0.0025
vn 0.5020 0.6165 0.6066
vn 0.5170 -0.6030 0.6075
vn 0.6280 -0.7771 -0.0404
vn 0.4403 -0.8454 0.3023
vn 0.3376 -0.9409 -0.0269
vn 0.4533 -0.5287 -0.7176
vn 0.6280 -0.7772 -0.0404
vn 0.4403 -0.8454 0.3022
vn 0.7698 0.1944 0.6080
vn -0.0757 0.0541 -0.9957
vn 0.7698 0.1944 0.6079
vn -0.1195 -0.8519 0.5099
vn -0.0255 -0.9574 0.2876
vn -0.0089 -0.2654 -0.9641
vn 0.4253 -0.5892 -0.6870
vn -0.1194 -0.8518 0.5100
vn 0.6433 0.7656 0.0026
vn 0.4592 0.5081 -0.7287
vn 0.5021 0.6165 0.6065
vn 0.6280 -0.7772 -0.0403
vn 0.1905 -0.6042 0.7737
vn -0.0256 -0.9574 0.2875
vn -0.7237 0.1048 0.6821
vn 0.7853 0.2374 0.5717
vn -0.2175 -0.5564 0.8020
vn -0.2174 -0.5564 0.8020
vn 0.7854 0.2374 0.5717
vn 0.9111 -0.1564 0.3814
vn 0.7786 0.5774 0.2457
vn 0.8652 -0.4015 -0.3003
vn -0.2663 0.9533 -0.1428
vn -0.3284 -0.3454 -0.8791
vn -0.9935 0.0611 -0.0960
vn -0.7237 0.1049 0.6821
vn -0.8775 -0.4632 -0.1243
vn -0.2663 0.9532 -0.1429
vn -0.3284 -0.3455 -0.8791
vn -0.6750 -0.6827 0.2798
vn 0.0329 0.1281 0.9912
vn 0.6289 -0.6099 0.4822
vn 0.7853 0.2374 0.5718
vn 0.0330 0.1281 0.9912
vn 0.4224 -0.8961 0.1367
vn 0.7787 0.5773 0.2457
vn 0.8127 -0.5651 0.1422
vn 0.8289 0.4375 -0.3485
vn 0.4896 0.8245 -0.2837
vn -0.2661 0.9533 -0.1429
vn 0.4897 0.8245 -0.2836
vn -0.7480 0.4805 -0.4578
vn -0.2662 0.9533 -0.1429
vn -0.5259 -0.7509 -0.3995
vn 0.8289 0.4375 -0.3486
vn 0.8289 0.4374 -0.3486
vn -0.5260 -0.7508 -0.3995
vn -0.6525 -0.7514 -0.0977
vn -0.9935 0.0611 -0.0959
vn -0.6750 -0.6827 0.2797
vn 0.6432 0.7657 0.0024
vn 0.6290 -0.6099 0.4821
vn 0.4223 -0.8961 0.1366
vn -0.6525 -0.7514 -0.0978
vn -0.5259 -0.7508 -0.3996
vn 0.8289 0.4376 -0.3485
vn 0.3323 0.0315 -0.9427
vn 0.6618 0.3517 -0.6621
vn -0.0000 0.4105 -0.9119
vn 0.3092 0.1081 -0.9448
vn 0.6865 0.2150 -0.6947
vn 0.5014 0.3710 -0.7817
vn 0.3903 0.7783 -0.4918
vn 0.6622 0.6268 -0.4107
vn 0.8901 0.4490 -0.0781
vn 0.9231 0.3765 -0.0782
vn 0.6716 0.7300 -0.1262
vn 0.3913 0.9065 -0.1583
vn 0.0001 0.9780 -0.2085
vn 0.4692 0.8805 0.0679
vn 0.9510 0.2245 -0.2127
vn 0.4155 0.8991 0.1375
vn 0.0001 0.9994 0.0342
vn 0.3044 0.7804 0.5462
vn -0.2782 0.5422 0.7929
vn 0.9638 0.2479 0.0985
vn 0.3068 0.9448 -0.1153
vn 0.4893 0.6815 0.5442
vn 0.6795 0.0432 0.7324
vn 0.6803 0.7172 -0.1508
vn 0.9815 0.1072 -0.1584
vn 0.5306 -0.6458 0.5491
vn 0.7707 -0.5861 -0.2499
vn 0.1292 -0.9916 0.0019
vn 0.1523 -0.8911 0.4276
vn 0.0172 -0.9310 0.3647
vn -0.0209 -0.9966 -0.0791
vn 0.1879 0.8435 0.5032
vn 0.0745 -0.7198 0.6901
vn 0.0625 -0.7252 0.6857
vn -0.0837 -0.3048 0.9487
vn 0.0001 0.8601 0.5102
vn -0.2767 0.0267 0.9606
vn 0.0609 -0.7051 0.7065
vn 0.4104 0.8864 -0.2143
vn 0.4221 -0.8053 0.4163
vn 0.1703 -0.0666 0.9831
vn 0.2927 0.8682 -0.4008
vn -0.0268 -0.9201 -0.3908
vn 0.2589 -0.8247 -0.5027
vn 0.4142 -0.7167 -0.5611
vn 0.7119 -0.0907 -0.6964
vn 0.5055 0.6139 -0.6064
vn 0.0236 -0.1578 -0.9872
vn 0.2383 -0.1255 -0.9631
vn 0.6510 -0.2976 -0.6983
vn 0.2590 -0.8247 -0.5028
vn 0.2678 -0.4766 -0.8373
vn -0.0000 -0.5914 -0.8063
vn -0.0000 0.4105 -0.9118
vn -0.1186 -0.6309 -0.7668
vn 0.9510 0.2246 -0.2127
vn 0.4692 0.8805 0.0680
vn 0.7529 -0.0306 -0.6574
vn 0.4691 0.8805 0.0679
vn -0.0611 0.9847 -0.1633
vn 0.7529 -0.0306 -0.6575
vn -0.2700 0.5003 0.8227
vn -0.2699 0.5003 0.8227
vn 0.6019 -0.0127 -0.7984
vn 0.0264 0.6597 0.7511
vn 0.4733 0.3725 -0.7983
vn 0.8076 -0.3808 0.4502
vn -0.5750 0.4716 0.6686
vn -0.2782 0.5422 0.7928
vn -0.2700 0.5003 0.8226
vn -0.5121 0.0301 0.8584
vn -0.2768 0.0267 0.9606
vn -0.2672 0.0439 0.9626
vn 0.3528 -0.6915 0.6304
vn 0.6669 -0.7429 -0.0581
vn -0.0398 0.0885 0.9953
vn 0.0264 0.6596 0.7512
vn 0.1192 -0.6640 0.7382
vn -0.0837 -0.3047 0.9487
vn 0.8077 -0.3807 0.4503
vn -0.0611 0.9847 -0.1632
vn -0.2781 0.5422 0.7929
vn 0.2816 -0.1475 -0.9481
vn 0.5030 -0.1763 -0.8461
vn 0.6019 -0.0127 -0.7985
vn 0.7592 -0.1608 -0.6307
vn 0.3527 -0.6915 0.6304
vn -0.0838 -0.3046 0.9488
vn 0.8076 -0.3807 0.4503
vn 0.4221 -0.8053 0.4164
vn 0.4559 -0.8799 -0.1338
vn 0.0745 -0.7198 0.6902
vn 0.4558 -0.8799 -0.1339
vn 0.0626 -0.7251 0.6858
vn 0.0745 -0.7199 0.6901
vn -0.0837 -0.3047 0.9488
vn 0.0626 -0.7252 0.6857
vn -0.0838 -0.3048 0.9487
vn -0.2842 0.4478 0.8478
vn -0.3390 -0.0730 0.9380
vn -0.2759 -0.0073 0.9612
vn 0.9691 -0.2391 0.0606
vn 0.4099 -0.3734 -0.8322
vn 0.4559 -0.8799 -0.1339
vn 0.4104 -0.3714 -0.8328
vn 0.4098 -0.3734 -0.8322
vn 0.4220 -0.8053 0.4164
vn 0.3320 -0.4849 -0.8091
vn 0.4104 -0.3714 -0.8329
vn 0.4216 -0.4031 -0.8122
vn 0.9637 0.2480 0.0985
vn 0.1703 -0.0665 0.9831
vn -0.2092 0.6087 0.7653
vn 0.7785 -0.6275 0.0104
vn 0.7785 -0.6276 0.0104
vn 0.9887 0.0317 0.1463
vn 0.1435 0.3960 0.9070
vn -0.2841 0.4479 0.8478
vn 0.4217 -0.4031 -0.8122
vn 0.1434 0.3960 0.9070
vn 0.7786 -0.6275 0.0104
vn 0.1435 0.3959 0.9070
vn 0.2926 0.8682 -0.4007
vn 0.2078 0.9562 -0.2061
vn 0.2585 0.9650 -0.0439
vn 0.4104 0.8864 -0.2142
vn 0.2020 0.9646 0.1697
vn 0.4391 0.8866 -0.1454
vn 0.3595 0.8908 -0.2780
vn 0.5593 0.7339 -0.3855
vn 0.6165 0.7420 -0.2633
vn 0.8165 0.5089 -0.2727
vn 0.7017 0.5393 -0.4656
vn 0.9011 0.3253 -0.2868
vn 0.7785 0.3147 -0.5430
vn 0.9511 -0.0000 -0.3090
vn 0.8090 -0.0000 -0.5878
vn 0.9083 -0.2966 -0.2951
vn 0.7726 -0.2966 -0.5613
vn 0.7844 -0.5655 -0.2549
vn 0.6672 -0.5655 -0.4848
vn 0.6276 -0.7515 -0.2033
vn 0.5466 -0.7483 -0.3758
vn 0.4702 -0.8790 -0.0795
vn 0.2622 -0.9346 -0.2402
vn 0.3166 -0.8086 -0.4959
vn 0.1866 -0.8057 -0.5622
vn 0.6722 -0.7404 0.0005
vn 0.5301 -0.8231 0.2039
vn 0.6435 -0.7387 0.2005
vn 0.5219 -0.7585 0.3902
vn 0.4848 -0.5655 -0.6672
vn 0.2471 -0.5660 -0.7865
vn 0.7844 -0.5655 0.2549
vn 0.6673 -0.5655 0.4848
vn 0.8248 -0.5655 -0.0000
vn 0.2874 -0.2969 -0.9106
vn 0.5613 -0.2966 -0.7726
vn 0.9083 -0.2966 0.2951
vn 0.7726 -0.2966 0.5613
vn 0.9550 -0.2966 -0.0000
vn 0.5878 -0.0000 -0.8090
vn 0.3013 -0.0000 -0.9535
vn 0.9511 -0.0000 0.3090
vn 0.8090 -0.0000 0.5878
vn 1.0000 -0.0000 -0.0000
vn 0.5613 0.2966 -0.7726
vn 0.2874 0.2969 -0.9106
vn 0.9085 0.3051 0.2856
vn 0.7726 0.2966 0.5613
vn 0.9489 0.3156 -0.0052
vn 0.4914 0.5428 -0.6811
vn 0.2462 0.5523 -0.7965
vn 0.8099 0.5323 0.2465
vn 0.6813 0.5366 0.4979
vn 0.5578 0.2919 0.7770
vn 0.4912 0.5434 0.6808
vn 0.8642 0.5012 0.0439
vn 0.3773 0.7574 -0.5329
vn 0.1893 0.7685 -0.6112
vn 0.5428 0.7423 0.3928
vn 0.3931 0.7459 0.5376
vn 0.2461 0.5530 0.7960
vn 0.1951 0.7513 0.6305
vn 0.6457 0.7353 0.2059
vn 0.6307 0.7719 0.0800
vn 0.2497 0.8789 -0.4064
vn 0.1528 0.8821 -0.4455
vn 0.1505 0.8508 0.5035
vn 0.2669 0.8756 0.4026
vn 0.3744 0.8727 0.3133
vn 0.4517 0.8824 0.1317
vn 0.4689 0.8832 0.0010
vn -0.0844 0.6486 -0.7564
vn -0.2492 0.9684 0.0064
vn -0.0903 0.7595 0.6442
vn 0.4253 -0.5891 -0.6870
vn 0.5150 -0.6317 0.5794
vn 0.0166 -0.9993 -0.0324
vn 0.2061 -0.9219 0.3280
vn 0.2027 -0.8195 0.5360
vn 0.3838 -0.7696 0.5102
vn 0.5014 -0.5697 0.6512
vn 0.3477 -0.5463 0.7620
vn 0.5723 -0.2790 0.7711
vn 0.5806 0.0009 0.8142
vn 0.3911 -0.2347 0.8899
vn 0.3179 0.0257 0.9478
vn 0.2890 0.2889 0.9127
vn 0.0001 0.2911 0.9567
vn -0.0000 0.0543 0.9985
vn 0.2085 -0.4943 0.8440
vn -0.8775 -0.4631 -0.1243
vn 0.4703 -0.8789 -0.0795
vn 0.4703 -0.8789 -0.0794
vn 0.8652 -0.4016 -0.3003
vn 0.5301 -0.8231 0.2038
vn -0.2175 -0.5563 0.8020
vn 0.2926 0.8682 -0.4008
vn -0.2884 0.8711 -0.3976
vn -0.0395 0.0081 -0.9992
vn -0.0317 0.0064 -0.9995
vn -0.1035 0.0209 -0.9944
vn -0.0000 -0.0000 1.0000
vn -0.0395 -0.0080 0.9992
vn -0.0317 -0.0064 0.9995
vn -0.1035 -0.0209 0.9944
vn -0.0775 -0.0262 0.9966
vn -0.0858 -0.0291 0.9959
vn -0.0692 -0.0235 0.9973
vn -0.1139 -0.0386 0.9927
vn 0.0317 -0.0064 0.9995
vn 0.0395 -0.0080 0.9992
vn 0.1035 -0.0209 0.9944
vn 0.0317 0.0064 -0.9995
vn 0.0395 0.0080 -0.9992
vn 0.1035 0.0209 -0.9944
vn 0.1139 0.0386 -0.9927
vn 0.0859 0.0291 -0.9959
vn 0.0692 0.0235 -0.9973
vn 0.0775 0.0262 -0.9966
vn 0.1139 -0.0386 0.9927
vn 0.0858 -0.0291 0.9959
vn 0.0692 -0.0235 0.9973
vn 0.0775 -0.0262 0.9966
vt 0.309536 0.802486
vt 0.309869 0.802486
vt 0.309540 0.802536
vt 0.309860 0.802535
vt 0.309178 0.802592
vt 0.309177 0.802532
vt 0.310259 0.802637
vt 0.590754 0.939826
vt 0.591812 0.936317
vt 0.574455 0.938808
vt 0.573933 0.944245
vt 0.591807 0.944093
vt 0.573836 0.949947
vt 0.591851 0.947919
vt 0.590191 0.953767
vt 0.593503 0.952095
vt 0.590771 0.957062
vt 0.573646 0.959663
vt 0.594005 0.966559
vt 0.587106 0.932963
vt 0.574414 0.930142
vt 0.576115 0.922542
vt 0.591204 0.926870
vt 0.597713 0.933585
vt 0.594961 0.944992
vt 0.595246 0.942552
vt 0.594104 0.940514
vt 0.594875 0.939337
vt 0.599114 0.941091
vt 0.597156 0.956379
vt 0.600344 0.948464
vt 0.596292 0.945666
vt 0.596530 0.964391
vt 0.604184 0.961360
vt 0.612761 0.948224
vt 0.599511 0.968704
vt 0.605286 0.970717
vt 0.884995 0.847039
vt 0.851138 0.847264
vt 0.859818 0.930643
vt 0.918623 0.845425
vt 0.909116 0.927167
vt 0.946417 0.914960
vt 0.961494 0.846405
vt 0.967755 0.910991
vt 0.807492 0.845273
vt 0.802152 0.904015
vt 0.762772 0.846086
vt 0.760253 0.908597
vt 0.586746 0.930672
vt 0.590353 0.936800
vt 0.591893 0.930155
vt 0.592883 0.937947
vt 0.596450 0.932178
vt 0.600661 0.939510
vt 0.593498 0.940405
vt 0.598816 0.958718
vt 0.595107 0.962340
vt 0.590583 0.957442
vt 0.590715 0.943030
vt 0.585312 0.957805
vt 0.588256 0.939456
vt 0.581012 0.962144
vt 0.581214 0.936984
vt 0.594319 0.938723
vt 0.594702 0.931774
vt 0.584702 0.939242
vt 0.586143 0.932057
vt 0.590319 0.930461
vt 0.583284 0.959074
vt 0.597471 0.962826
vt 0.586178 0.962657
vt 0.305850 0.691700
vt 0.283478 0.716921
vt 0.314257 0.747218
vt 0.267526 0.749494
vt 0.317523 0.859047
vt 0.358984 0.860547
vt 0.256682 0.848045
vt 0.221505 0.788283
vt 0.316572 0.889674
vt 0.280480 0.878891
vt 0.352745 0.891250
vt 0.182670 0.827461
vt 0.217584 0.875839
vt 0.251184 0.906287
vt 0.286772 0.927487
vt 0.311635 0.943834
vt 0.196553 0.909021
vt 0.169336 0.895592
vt 0.242557 0.959324
vt 0.262187 0.982469
vt 0.216112 0.971969
vt 0.183454 0.941657
vt 0.233527 0.993372
vt 0.151599 0.985939
vt 0.130121 0.849085
vt 0.175655 0.818456
vt 0.146135 0.816898
vt 0.142981 0.799634
vt 0.164643 0.802132
vt 0.157498 0.791708
vt 0.142550 0.789941
vt 0.154993 0.779488
vt 0.148158 0.765840
vt 0.138562 0.775184
vt 0.118148 0.749347
vt 0.134722 0.733142
vt 0.080291 0.717336
vt 0.088858 0.781366
vt 0.073296 0.759678
vt 0.034595 0.761343
vt 0.021031 0.833612
vt 0.068971 0.819386
vt 0.052925 0.735039
vt 0.117588 0.877411
vt 0.081226 0.909706
vt 0.111178 0.782341
vt 0.122783 0.688388
vt 0.082819 0.817791
vt 0.119526 0.806995
vt 0.162642 0.725136
vt 0.158518 0.669865
vt 0.188579 0.662989
vt 0.164387 0.762387
vt 0.177231 0.773505
vt 0.187155 0.785122
vt 0.193238 0.751849
vt 0.238226 0.714702
vt 0.255040 0.708269
vt 0.200682 0.701046
vt 0.227436 0.657282
vt 0.269228 0.674197
vt 0.192320 0.716081
vt 0.449710 0.939709
vt 0.447801 0.925379
vt 0.443563 0.939716
vt 0.451444 0.950849
vt 0.439991 0.925462
vt 0.445024 0.950853
vt 0.450851 0.959478
vt 0.447811 0.959403
vt 0.449474 0.965834
vt 0.456986 0.925421
vt 0.454179 0.939723
vt 0.470849 0.939631
vt 0.474953 0.925566
vt 0.462711 0.950843
vt 0.475090 0.950868
vt 0.460271 0.960112
vt 0.456422 0.959767
vt 0.486501 0.939595
vt 0.489802 0.925590
vt 0.097088 0.162731
vt 0.067247 0.211699
vt 0.046553 0.164525
vt 0.052463 0.106441
vt 0.119806 0.104305
vt 0.144742 0.161473
vt 0.202915 0.101752
vt 0.068913 0.031835
vt 0.144151 0.029848
vt 0.223172 0.027395
vt 0.033324 0.209378
vt 0.025636 0.243047
vt 0.072137 0.213948
vt 0.592422 0.946765
vt 0.585001 0.946797
vt 0.592199 0.947982
vt 0.592682 0.953390
vt 0.584578 0.951008
vt 0.579031 0.952207
vt 0.578368 0.946398
vt 0.578483 0.949081
vt 0.592780 0.960538
vt 0.578155 0.945912
vt 0.579012 0.946398
vt 0.579127 0.949081
vt 0.580085 0.951975
vt 0.585182 0.955380
vt 0.586594 0.952179
vt 0.584538 0.955380
vt 0.578159 0.947728
vt 0.581898 0.951986
vt 0.579440 0.952007
vt 0.865779 0.769132
vt 0.844273 0.773194
vt 0.859501 0.777640
vt 0.845225 0.784079
vt 0.819990 0.782423
vt 0.825657 0.791610
vt 0.795747 0.799486
vt 0.802917 0.807356
vt 0.785262 0.825076
vt 0.793941 0.828877
vt 0.803655 0.718598
vt 0.828851 0.710039
vt 0.798244 0.612005
vt 0.750040 0.628672
vt 0.725495 0.590395
vt 0.785766 0.556049
vt 0.677119 0.494910
vt 0.728862 0.463035
vt 0.633232 0.433572
vt 0.683476 0.396878
vt 0.551736 0.325965
vt 0.597830 0.286658
vt 0.489788 0.249204
vt 0.529101 0.210103
vt 0.452776 0.196642
vt 0.482372 0.162401
vt 0.390480 0.182990
vt 0.433261 0.144665
vt 0.507353 0.120631
vt 0.523812 0.070723
vt 0.415267 0.035634
vt 0.531162 0.018558
vt 0.418601 0.225109
vt 0.364574 0.200400
vt 0.380457 0.247958
vt 0.338060 0.265658
vt 0.577512 0.161383
vt 0.613062 0.104254
vt 0.643049 0.036893
vt 0.403045 0.312492
vt 0.352860 0.338463
vt 0.448159 0.282911
vt 0.698507 0.186024
vt 0.646110 0.241175
vt 0.753842 0.118611
vt 0.457904 0.395268
vt 0.405650 0.428145
vt 0.505808 0.361604
vt 0.738648 0.356894
vt 0.801959 0.311376
vt 0.872415 0.261257
vt 0.537119 0.504790
vt 0.486483 0.542439
vt 0.585206 0.469006
vt 0.786990 0.431313
vt 0.855101 0.399243
vt 0.935256 0.368391
vt 0.582956 0.564786
vt 0.536917 0.604974
vt 0.628989 0.528518
vt 0.841583 0.534766
vt 0.904461 0.520237
vt 0.971087 0.511201
vt 0.648920 0.645961
vt 0.610615 0.685611
vt 0.489273 0.651303
vt 0.574155 0.732864
vt 0.688027 0.616571
vt 0.845805 0.602164
vt 0.898707 0.593480
vt 0.971110 0.593854
vt 0.661173 0.713732
vt 0.638429 0.756228
vt 0.540196 0.790267
vt 0.621811 0.807680
vt 0.510989 0.861027
vt 0.614952 0.873859
vt 0.688567 0.679515
vt 0.714948 0.654303
vt 0.855908 0.705630
vt 0.880321 0.709466
vt 0.904830 0.719232
vt 0.734563 0.850843
vt 0.732937 0.823607
vt 0.738083 0.797744
vt 0.747983 0.772737
vt 0.762650 0.750779
vt 0.781439 0.732522
vt 0.717138 0.604462
vt 0.727698 0.622238
vt 0.723569 0.630951
vt 0.715714 0.633261
vt 0.700835 0.617009
vt 0.356927 0.162823
vt 0.237952 0.160473
vt 0.325311 0.201900
vt 0.226055 0.291447
vt 0.168671 0.266753
vt 0.290293 0.276278
vt 0.306031 0.358526
vt 0.235315 0.391719
vt 0.346072 0.461175
vt 0.430585 0.583934
vt 0.294235 0.468344
vt 0.379710 0.598321
vt 0.438511 0.707762
vt 0.386304 0.774724
vt 0.320855 0.646665
vt 0.262874 0.546449
vt 0.169345 0.426210
vt 0.471286 0.943409
vt 0.480093 0.941929
vt 0.471277 0.937429
vt 0.479293 0.935836
vt 0.462532 0.936561
vt 0.461521 0.943870
vt 0.456116 0.935833
vt 0.444806 0.938021
vt 0.444758 0.944381
vt 0.488138 0.941201
vt 0.487889 0.934847
vt 0.093333 0.434044
vt 0.098014 0.582353
vt 0.046376 0.588650
vt 0.038831 0.645168
vt 0.113803 0.643937
vt 0.185632 0.572344
vt 0.132636 0.578443
vt 0.220801 0.598600
vt 0.151053 0.626619
vt 0.133642 0.416657
vt 0.466956 0.934017
vt 0.470695 0.945802
vt 0.457799 0.939794
vt 0.309592 0.802763
vt 0.309998 0.802763
vt 0.309597 0.802814
vt 0.309990 0.802813
vt 0.309180 0.802883
vt 0.309177 0.802823
vt 0.310407 0.802889
vt 0.309993 0.802763
vt 0.309587 0.802763
vt 0.309988 0.802713
vt 0.309594 0.802713
vt 0.310405 0.802643
vt 0.310407 0.802703
vt 0.309177 0.802637
vt 0.309900 0.802485
vt 0.309567 0.802485
vt 0.309897 0.802435
vt 0.309576 0.802435
vt 0.310259 0.802379
vt 0.310259 0.802439
vt 0.309177 0.802334
vt 0.309990 0.803088
vt 0.309998 0.803138
vt 0.309597 0.803086
vt 0.309591 0.803136
vt 0.309180 0.803014
vt 0.309177 0.803074
vt 0.310408 0.803014
vt 0.309595 0.802939
vt 0.309587 0.802890
vt 0.309988 0.802942
vt 0.309994 0.802891
vt 0.310405 0.803013
vt 0.310408 0.802953
vt 0.309177 0.803013
vt 0.309580 0.803188
vt 0.309573 0.803138
vt 0.309900 0.803202
vt 0.309906 0.803152
vt 0.310260 0.803273
vt 0.310262 0.803213
vt 0.309177 0.803273
s 1
usemtl Tom
f 3/1/1 2/2/2 1/3/3
f 2/2/2 4/4/4 1/3/3
f 3/1/1 1/3/3 5/5/5
f 6/6/5 3/1/1 5/5/5
f 2/2/2 7/7/5 4/4/4
f 10/8/6 9/9/7 8/10/8
f 8/10/8 11/11/9 10/8/6
f 11/11/9 12/12/10 10/8/6
f 11/11/9 13/13/11 12/12/10
f 13/13/11 14/14/12 12/12/10
f 13/13/11 15/15/13 14/14/12
f 15/15/13 16/16/14 14/14/12
f 17/17/15 16/16/14 15/15/13
f 17/17/15 15/15/13 13/13/11
f 18/18/16 17/17/15 13/13/11
f 19/19/17 17/17/15 18/18/16
f 20/20/18 8/10/8 9/9/7
f 21/21/19 8/10/8 20/20/18
f 21/21/19 20/20/18 22/22/20
f 20/20/18 23/23/21 22/22/20
f 20/20/18 9/9/7 23/23/21
f 9/9/7 24/24/22 23/23/21
f 25/25/23 14/14/12 16/16/14
f 25/25/23 26/26/24 14/14/12
f 27/26/25 12/12/10 14/14/12
f 27/26/25 28/27/26 12/12/10
f 29/28/27 28/27/28 26/26/24
f 30/29/29 29/28/27 26/26/24
f 30/29/30 24/24/22 9/9/7
f 16/16/31 32/30/32 31/31/33
f 33/17/34 32/30/32 16/16/31
f 34/32/35 16/16/31 31/31/33
f 34/32/35 35/25/36 16/16/31
f 36/29/29 34/32/35 31/31/33
f 34/32/35 37/29/29 35/25/36
f 39/33/37 32/30/38 38/17/15
f 40/19/17 39/33/39 17/17/15
f 28/27/26 41/28/27 10/8/6
f 41/28/27 9/9/7 10/8/6
f 28/27/26 10/8/6 12/12/10
f 44/30/40 43/34/41 42/35/42
f 46/35/43 43/34/44 45/36/45
f 48/36/46 43/34/41 47/33/39
f 43/34/41 49/30/21 47/33/39
f 47/33/39 50/19/47 48/36/46
f 53/37/17 52/35/16 51/36/45
f 56/38/48 55/39/49 54/40/50
f 58/41/51 56/38/48 57/42/52
f 56/38/48 59/40/50 57/42/52
f 57/42/52 60/43/53 58/41/51
f 58/41/51 60/43/53 61/44/54
f 60/43/53 62/45/55 61/44/54
f 55/39/49 64/46/56 63/40/50
f 64/46/56 65/47/57 63/40/50
f 64/46/56 66/48/58 65/47/57
f 66/48/58 67/49/55 65/47/57
f 70/50/59 69/51/60 68/52/61
f 72/51/49 71/53/62 68/52/63
f 71/53/62 73/54/64 68/52/63
f 74/55/65 73/54/64 71/53/62
f 75/56/66 74/55/65 71/53/62
f 76/57/67 74/55/65 75/56/66
f 76/57/67 75/56/66 77/58/68
f 75/56/66 78/59/69 77/58/68
f 80/59/70 75/56/71 79/60/72
f 82/61/73 81/59/70 79/60/72
f 82/61/73 79/60/72 83/62/56
f 82/61/73 83/62/56 84/63/74
f 85/63/74 77/58/75 82/61/73
f 83/62/56 86/64/76 85/63/74
f 83/62/56 87/51/49 86/64/76
f 87/51/49 70/50/59 86/64/76
f 88/58/75 81/59/70 82/61/73
f 90/28/27 30/29/29 89/9/77
f 92/29/29 91/26/24 25/25/23
f 95/65/78 94/66/59 93/67/79
f 94/66/59 96/68/80 93/67/79
f 97/69/61 96/68/80 94/66/59
f 95/65/78 93/67/79 98/70/67
f 99/71/81 95/65/78 98/70/67
f 100/72/82 99/71/81 98/70/67
f 103/73/83 102/74/84 101/75/85
f 102/74/84 104/76/86 101/75/85
f 104/76/86 105/77/87 101/75/85
f 105/77/87 106/78/88 101/75/85
f 105/77/87 104/76/86 107/79/89
f 104/76/86 108/80/90 107/79/89
f 105/77/87 107/79/89 109/81/91
f 107/79/89 110/82/92 109/81/91
f 106/78/88 105/77/87 111/83/93
f 105/77/87 109/81/91 111/83/93
f 108/80/90 112/84/94 107/79/89
f 112/84/94 113/85/95 107/79/89
f 113/85/95 114/86/96 107/79/89
f 114/86/96 110/82/92 107/79/89
f 109/81/91 110/82/92 115/87/97
f 110/82/92 114/86/96 115/87/97
f 111/83/93 109/81/91 116/88/98
f 109/81/91 115/87/97 116/88/98
f 114/86/96 113/85/95 117/89/99
f 113/85/95 118/90/100 117/89/99
f 117/89/99 119/91/101 114/86/96
f 119/91/101 115/87/97 114/86/96
f 119/91/101 120/92/102 115/87/97
f 121/92/103 116/88/98 115/87/97
f 122/93/104 119/91/101 117/89/99
f 123/94/105 122/93/104 117/89/99
f 122/93/104 124/95/106 119/91/101
f 122/93/104 123/94/105 124/95/106
f 124/95/106 125/92/107 119/91/101
f 123/94/105 126/96/108 124/95/106
f 118/90/100 113/85/95 127/97/109
f 113/85/95 112/84/94 127/97/109
f 128/98/110 127/97/109 112/84/94
f 129/99/111 127/97/109 128/98/110
f 129/99/111 130/100/112 127/97/109
f 129/99/111 131/101/113 130/100/112
f 131/101/113 129/99/111 128/98/110
f 131/101/113 132/102/114 130/100/112
f 130/100/112 132/102/114 133/103/115
f 132/102/114 134/104/116 133/103/115
f 133/103/115 134/104/116 135/105/117
f 136/106/118 133/103/115 135/105/117
f 136/106/118 135/105/117 137/107/119
f 135/105/117 138/108/120 137/107/119
f 137/107/119 138/108/120 139/109/121
f 137/107/119 139/109/121 140/110/122
f 141/111/123 140/110/122 139/109/121
f 142/112/124 141/111/123 139/109/121
f 142/112/124 143/113/125 141/111/123
f 143/113/125 144/114/126 141/111/123
f 145/115/127 142/112/124 139/109/121
f 146/116/128 144/114/126 143/113/125
f 147/117/129 146/116/128 143/113/125
f 147/117/129 148/96/108 146/116/128
f 148/96/108 123/94/105 146/116/128
f 149/118/130 137/107/119 140/110/122
f 136/106/118 137/107/119 149/118/130
f 138/108/120 150/119/131 139/109/121
f 149/118/130 140/110/122 151/120/132
f 152/121/133 149/118/130 151/120/132
f 133/103/115 149/118/130 152/121/133
f 133/103/115 136/106/118 149/118/130
f 130/100/112 133/103/115 152/121/133
f 130/100/112 152/121/133 127/97/109
f 138/108/120 153/122/134 150/119/131
f 153/122/134 154/123/135 150/119/131
f 153/122/134 155/124/136 154/123/135
f 156/125/137 153/122/134 138/108/120
f 135/105/117 156/125/137 138/108/120
f 135/105/117 134/104/116 156/125/137
f 156/125/137 134/104/116 157/126/138
f 134/104/116 132/102/114 157/126/138
f 132/102/114 131/101/113 157/126/138
f 131/101/113 158/127/139 157/126/138
f 131/101/113 128/98/110 158/127/139
f 128/98/110 108/80/90 158/127/139
f 128/98/110 112/84/94 108/80/90
f 158/127/139 108/80/90 159/128/140
f 159/128/140 157/126/138 158/127/139
f 156/125/137 157/126/138 159/128/140
f 156/125/137 159/128/140 153/122/134
f 159/128/140 108/80/90 160/129/141
f 108/80/90 104/76/86 160/129/141
f 161/130/142 160/129/141 104/76/86
f 160/129/141 161/130/142 162/131/143
f 161/130/142 155/124/136 162/131/143
f 155/124/136 161/130/142 163/132/144
f 161/130/142 164/133/145 163/132/144
f 165/73/146 164/133/145 161/130/142
f 102/74/84 165/73/146 161/130/142
f 102/74/84 161/130/142 104/76/86
f 160/129/141 162/131/143 166/134/147
f 160/129/141 166/134/147 159/128/140
f 153/122/134 166/134/147 155/124/136
f 166/134/147 153/122/134 159/128/140
f 166/134/147 162/131/143 167/124/136
f 170/135/148 169/136/99 168/137/149
f 171/138/150 170/135/148 168/137/149
f 173/136/151 172/139/152 168/137/149
f 176/140/153 175/138/154 174/137/155
f 175/138/154 176/140/153 177/141/156
f 176/140/157 179/142/158 178/141/159
f 180/143/160 178/141/159 179/142/158
f 183/136/161 182/135/148 181/144/162
f 185/135/148 184/145/163 181/144/105
f 184/145/163 185/135/148 186/138/164
f 181/144/105 184/145/163 187/146/165
f 188/147/166 181/144/105 187/146/165
f 187/146/165 184/145/163 189/148/167
f 189/148/167 190/149/168 187/146/165
f 190/149/168 189/148/167 191/150/169
f 189/148/167 192/151/170 191/150/169
f 193/141/159 192/151/170 189/148/167
f 194/138/164 193/141/159 189/148/167
f 184/145/163 194/138/164 189/148/167
f 190/149/168 195/152/171 187/146/165
f 188/147/166 187/146/165 195/152/171
f 196/153/126 188/147/166 195/152/171
f 197/143/160 192/151/170 193/141/159
f 197/143/160 191/150/169 192/151/170
f 200/154/172 199/155/173 198/156/157
f 200/154/172 198/156/157 201/157/149
f 202/158/174 200/154/172 201/157/149
f 200/154/172 203/159/175 199/155/173
f 203/159/175 200/154/172 202/158/174
f 204/160/176 203/159/175 202/158/174
f 202/158/174 201/157/149 205/161/152
f 206/162/177 202/158/174 205/161/152
f 204/160/176 202/158/174 206/162/177
f 207/163/178 204/160/176 206/162/177
f 198/156/157 199/155/173 208/164/179
f 209/165/160 208/164/179 199/155/173
f 209/165/160 199/155/173 210/166/180
f 211/159/175 210/166/180 199/155/173
f 214/167/123 213/168/181 212/169/182
f 216/168/183 215/170/132 212/169/182
f 218/167/184 217/171/185 213/168/183
f 220/168/186 217/171/185 219/172/187
f 220/168/186 219/172/187 221/173/188
f 219/172/187 222/174/189 221/173/188
f 217/171/185 223/175/109 219/172/187
f 224/176/190 221/173/188 222/174/189
f 221/173/188 225/177/191 213/168/183
f 221/173/188 224/176/190 225/177/191
f 226/178/192 224/176/190 222/174/189
f 224/176/190 226/178/192 227/177/193
f 220/168/186 227/177/191 228/170/194
f 227/177/193 226/178/192 229/170/195
f 226/178/196 230/179/197 228/170/198
f 228/170/198 230/179/197 231/180/199
f 228/170/198 231/180/199 223/175/200
f 232/181/201 228/170/198 223/175/200
f 231/180/199 233/182/202 223/175/200
f 234/183/203 230/179/197 226/178/196
f 222/174/189 235/183/204 226/178/192
f 231/180/199 236/184/205 233/182/202
f 236/184/205 237/185/206 233/182/202
f 238/172/207 233/182/202 237/185/206
f 239/174/189 238/172/207 237/185/206
f 240/175/208 233/182/202 238/172/207
f 230/179/197 241/183/204 237/185/209
f 236/184/205 243/180/199 242/179/210
f 242/179/210 244/185/211 236/184/205
f 246/183/212 245/174/189 237/185/209
f 249/186/213 248/187/214 247/188/215
f 248/187/214 250/189/216 247/188/215
f 248/187/214 251/190/217 250/189/216
f 251/190/217 252/191/131 250/189/216
f 251/190/217 253/192/218 252/191/131
f 253/192/218 254/193/121 252/191/131
f 253/192/218 255/194/219 254/193/121
f 255/194/219 256/195/220 254/193/121
f 257/196/221 251/190/217 248/187/214
f 258/197/222 257/196/221 248/187/214
f 258/197/222 259/198/223 257/196/221
f 259/198/223 260/199/224 257/196/221
f 260/199/224 259/198/223 261/200/225
f 259/198/223 262/201/226 261/200/225
f 261/200/225 262/201/226 263/202/227
f 262/201/226 264/203/228 263/202/227
f 263/202/227 264/203/228 265/204/229
f 264/203/228 266/205/230 265/204/229
f 265/204/229 266/205/230 267/206/231
f 266/205/230 268/207/232 267/206/231
f 267/206/231 268/207/232 269/208/233
f 268/207/232 270/209/234 269/208/233
f 269/208/233 270/209/234 271/210/235
f 270/209/234 272/211/236 271/210/235
f 271/210/235 272/211/236 273/212/237
f 272/211/236 274/213/238 273/212/237
f 272/211/236 275/214/239 274/213/238
f 275/214/239 276/215/240 274/213/238
f 276/215/240 277/216/241 274/213/238
f 276/215/240 278/217/242 277/216/241
f 279/218/243 271/210/235 273/212/237
f 269/208/233 271/210/235 279/218/243
f 279/218/243 273/212/237 280/219/244
f 281/220/245 279/218/243 280/219/244
f 282/221/246 281/220/245 280/219/244
f 270/209/234 283/222/247 272/211/236
f 283/222/247 275/214/239 272/211/236
f 283/222/247 284/223/248 275/214/239
f 284/223/248 276/215/240 275/214/239
f 284/223/248 285/224/249 276/215/240
f 285/224/249 278/217/242 276/215/240
f 286/225/250 281/220/245 282/221/246
f 287/226/251 286/225/250 282/221/246
f 286/225/250 288/227/252 281/220/245
f 288/227/252 279/218/243 281/220/245
f 288/227/252 269/208/233 279/218/243
f 289/228/253 284/223/248 283/222/247
f 290/229/254 289/228/253 283/222/247
f 290/229/254 283/222/247 270/209/234
f 268/207/232 290/229/254 270/209/234
f 289/228/253 291/230/255 284/223/248
f 291/230/255 285/224/249 284/223/248
f 292/231/256 286/225/250 287/226/251
f 293/232/257 292/231/256 287/226/251
f 292/231/256 294/233/258 286/225/250
f 294/233/258 288/227/252 286/225/250
f 294/233/258 267/206/231 288/227/252
f 267/206/231 269/208/233 288/227/252
f 295/234/259 290/229/254 268/207/232
f 266/205/230 295/234/259 268/207/232
f 295/234/259 296/235/260 290/229/254
f 296/235/260 289/228/253 290/229/254
f 296/235/260 297/236/5 289/228/253
f 297/236/5 298/230/255 289/228/253
f 299/237/261 292/231/256 293/232/257
f 300/238/262 299/237/261 293/232/257
f 299/237/261 301/239/263 292/231/256
f 301/239/263 294/233/258 292/231/256
f 301/239/263 265/204/229 294/233/258
f 265/204/229 267/206/231 294/233/258
f 302/240/264 295/234/259 266/205/230
f 264/203/228 302/240/264 266/205/230
f 302/240/264 303/241/265 295/234/259
f 303/241/265 296/235/260 295/234/259
f 303/241/265 304/242/266 296/235/260
f 304/242/266 297/236/5 296/235/260
f 305/243/267 299/237/261 300/238/262
f 306/244/268 305/243/267 300/238/262
f 305/243/267 307/245/269 299/237/261
f 307/245/269 301/239/263 299/237/261
f 307/245/269 263/202/227 301/239/263
f 263/202/227 265/204/229 301/239/263
f 308/246/270 302/240/264 264/203/228
f 262/201/226 308/246/270 264/203/228
f 308/246/270 309/247/271 302/240/264
f 309/247/271 303/241/265 302/240/264
f 309/247/271 310/248/272 303/241/265
f 310/248/272 304/242/266 303/241/265
f 311/249/273 305/243/267 306/244/268
f 312/250/274 311/249/273 306/244/268
f 312/250/274 306/244/268 313/251/275
f 314/252/276 312/250/274 313/251/275
f 311/249/273 315/253/277 305/243/267
f 315/253/277 307/245/269 305/243/267
f 315/253/277 261/200/225 307/245/269
f 261/200/225 263/202/227 307/245/269
f 316/254/278 308/246/270 262/201/226
f 259/198/223 316/254/278 262/201/226
f 316/254/278 317/255/279 308/246/270
f 317/255/279 309/247/271 308/246/270
f 317/255/279 318/256/280 309/247/271
f 318/256/280 310/248/272 309/247/271
f 319/257/281 312/250/274 314/252/276
f 320/258/282 319/257/281 314/252/276
f 320/258/282 314/252/276 321/259/283
f 314/252/276 313/251/275 321/259/283
f 322/260/284 320/258/282 321/259/283
f 322/260/284 321/259/283 323/261/285
f 324/262/286 322/260/284 323/261/285
f 319/257/281 325/263/287 312/250/274
f 325/263/287 311/249/273 312/250/274
f 325/263/287 326/264/288 311/249/273
f 326/264/288 315/253/277 311/249/273
f 316/254/278 259/198/223 258/197/222
f 327/265/289 316/254/278 258/197/222
f 317/255/279 316/254/278 327/265/289
f 328/266/290 317/255/279 327/265/289
f 318/256/280 317/255/279 328/266/290
f 329/267/291 318/256/280 328/266/290
f 322/260/284 324/262/286 330/268/292
f 331/269/293 322/260/284 330/268/292
f 320/258/282 322/260/284 331/269/293
f 332/270/294 320/258/282 331/269/293
f 319/257/281 320/258/282 332/270/294
f 333/271/295 319/257/281 332/270/294
f 334/272/296 325/263/287 333/271/295
f 326/264/288 325/263/287 334/272/296
f 325/263/287 319/257/281 333/271/295
f 335/273/297 326/264/288 334/272/296
f 260/199/224 326/264/288 335/273/297
f 257/196/221 260/199/224 335/273/297
f 327/265/289 258/197/222 248/187/214
f 328/266/290 327/265/289 249/186/213
f 327/265/289 248/187/214 249/186/213
f 329/267/291 328/266/290 249/186/213
f 331/269/293 330/268/292 255/194/219
f 332/270/294 331/269/293 255/194/219
f 333/271/295 332/270/294 253/192/218
f 332/270/294 255/194/219 253/192/218
f 334/272/296 333/271/295 253/192/218
f 335/273/297 334/272/296 251/190/217
f 334/272/296 253/192/218 251/190/217
f 257/196/221 335/273/297 251/190/217
f 261/200/225 336/274/42 260/199/224
f 338/274/298 337/275/299 260/199/224
f 337/275/299 339/276/300 260/199/224
f 326/264/288 260/199/224 339/276/300
f 340/277/8 326/264/288 339/276/300
f 315/253/277 341/278/301 261/200/225
f 341/278/301 315/253/277 326/264/288
f 341/278/301 342/274/298 261/200/225
f 343/277/8 341/278/301 326/264/288
f 344/279/302 273/212/237 274/213/238
f 344/279/302 274/213/238 277/216/241
f 344/279/302 346/280/303 345/281/304
f 347/216/305 346/280/303 344/279/302
f 348/282/306 345/281/304 346/280/303
f 349/283/307 348/282/306 346/280/303
f 348/282/306 350/284/308 345/281/304
f 350/284/308 282/221/246 345/281/304
f 282/221/246 280/219/244 345/281/304
f 351/285/309 350/284/308 348/282/306
f 282/221/246 350/284/308 351/285/309
f 352/286/310 351/285/309 348/282/306
f 287/226/251 282/221/246 351/285/309
f 287/226/251 351/285/309 353/287/311
f 293/232/257 287/226/251 353/287/311
f 293/232/257 353/287/311 354/288/312
f 300/238/262 293/232/257 354/288/312
f 300/238/262 354/288/312 313/251/275
f 306/244/268 300/238/262 313/251/275
f 353/287/311 351/285/309 355/289/313
f 351/285/309 352/286/310 355/289/313
f 354/288/312 353/287/311 356/290/314
f 353/287/311 355/289/313 356/290/314
f 313/251/275 354/288/312 357/291/315
f 354/288/312 356/290/314 357/291/315
f 313/251/275 357/291/315 321/259/283
f 321/259/283 357/291/315 323/261/285
f 357/291/315 356/290/314 358/292/316
f 357/291/315 358/292/316 359/261/285
f 356/290/314 360/293/317 358/292/316
f 356/290/314 361/294/318 360/293/317
f 361/294/318 356/290/314 355/289/313
f 362/295/319 361/294/318 352/286/310
f 363/294/318 355/289/313 352/286/310
f 362/295/319 352/286/310 348/282/306
f 362/295/319 348/282/306 349/283/307
f 366/296/320 365/297/304 364/298/321
f 365/297/304 367/299/50 364/298/321
f 366/296/320 364/298/321 368/300/322
f 369/301/323 366/296/320 368/300/322
f 371/301/324 368/300/322 370/302/325
f 373/301/323 370/302/325 372/303/52
f 374/304/244 373/301/323 372/303/52
f 377/297/326 376/305/327 375/299/328
f 376/305/327 378/306/52 375/299/328
f 381/307/329 380/308/330 379/309/331
f 382/310/332 379/309/331 380/308/330
f 383/311/333 382/310/332 380/308/330
f 386/307/334 385/312/335 384/313/336
f 385/312/335 387/314/318 384/313/336
f 387/314/318 388/315/337 384/313/336
f 391/307/334 390/313/338 389/308/330
f 390/313/338 392/315/319 389/308/330
f 392/315/319 393/311/339 389/308/330
f 396/9/340 395/8/341 394/10/342
f 397/11/343 394/10/342 395/8/341
f 398/12/344 397/11/343 395/8/341
f 399/13/345 397/11/343 398/12/344
f 400/14/346 399/13/345 398/12/344
f 401/15/347 399/13/345 400/14/346
f 402/16/348 401/15/347 400/14/346
f 402/16/348 403/17/349 401/15/347
f 401/15/347 403/17/349 399/13/345
f 403/17/349 404/18/350 399/13/345
f 403/17/349 405/19/351 404/18/350
f 394/10/342 406/20/352 396/9/340
f 394/10/342 407/21/353 406/20/352
f 406/20/352 407/21/353 408/22/354
f 409/23/355 406/20/352 408/22/354
f 396/9/340 406/20/352 409/23/355
f 410/24/356 396/9/340 409/23/355
f 400/14/346 411/25/357 402/16/348
f 398/12/344 412/26/358 400/14/346
f 413/27/359 412/26/358 398/12/344
f 395/8/341 413/27/359 398/12/344
f 414/28/360 413/27/359 395/8/341
f 396/9/340 414/28/360 395/8/341
f 410/24/356 415/29/361 396/9/340
f 417/30/362 402/16/348 416/31/363
f 417/30/362 418/17/349 402/16/348
f 402/16/348 419/32/364 416/31/363
f 420/25/357 419/32/364 402/16/348
f 419/32/364 421/29/361 416/31/363
f 422/29/365 419/32/364 420/25/357
f 417/30/366 424/33/367 423/17/368
f 424/33/369 425/19/351 403/17/349
f 427/30/355 426/34/370 424/33/369
f 426/34/370 428/36/371 424/33/369
f 429/19/372 424/33/369 428/36/371
f 426/34/370 431/30/366 430/35/373
f 426/34/374 433/35/373 432/36/371
f 434/26/375 420/25/376 400/14/346
f 413/27/377 435/28/360 434/26/358
f 435/28/360 415/29/365 434/26/358
f 415/29/378 437/28/360 436/9/379
f 440/35/354 439/37/351 438/36/380
f 443/39/381 442/38/382 441/40/383
f 445/40/384 442/38/385 444/42/386
f 442/38/385 446/41/387 444/42/386
f 447/43/388 444/42/386 446/41/387
f 447/43/388 446/41/387 448/44/389
f 449/45/390 447/43/388 448/44/389
f 451/46/391 443/39/392 450/40/384
f 452/47/393 451/46/391 450/40/384
f 453/48/394 451/46/391 452/47/393
f 454/49/395 453/48/394 452/47/393
f 457/51/392 456/50/396 455/52/397
f 459/54/398 458/53/399 455/52/400
f 458/53/399 460/51/392 455/52/400
f 459/54/398 461/55/401 458/53/399
f 461/55/401 462/56/402 458/53/399
f 461/55/401 463/57/403 462/56/402
f 462/56/402 463/57/403 464/58/404
f 465/59/405 462/56/402 464/58/404
f 462/56/402 467/59/405 466/60/406
f 469/59/407 468/61/408 466/60/409
f 466/60/409 468/61/408 470/62/391
f 470/62/391 468/61/408 471/63/410
f 469/59/407 472/58/411 468/61/408
f 464/58/412 473/63/413 468/61/408
f 474/64/414 470/62/415 473/63/410
f 475/51/392 470/62/415 474/64/414
f 456/50/416 475/51/392 474/64/414
f 477/26/417 476/29/378 411/25/357
f 480/68/418 479/66/396 478/67/419
f 479/66/396 481/65/420 478/67/419
f 480/68/418 482/69/400 479/66/396
f 478/67/419 481/65/420 483/70/403
f 481/65/420 484/71/421 483/70/403
f 484/71/421 485/72/422 483/70/403
f 488/76/423 487/74/424 486/75/85
f 487/74/424 489/73/425 486/75/85
f 490/77/426 488/76/423 486/75/85
f 491/78/88 490/77/426 486/75/85
f 488/76/423 490/77/426 492/79/427
f 493/80/428 488/76/423 492/79/427
f 492/79/427 490/77/426 494/81/429
f 495/82/430 492/79/427 494/81/429
f 494/81/429 490/77/426 496/83/93
f 490/77/426 491/78/88 496/83/93
f 497/84/431 493/80/428 492/79/427
f 498/85/432 497/84/431 492/79/427
f 495/82/430 499/86/433 492/79/427
f 499/86/433 498/85/432 492/79/427
f 499/86/433 495/82/430 500/87/434
f 495/82/430 494/81/429 500/87/434
f 500/87/434 494/81/429 501/88/435
f 494/81/429 496/83/93 501/88/435
f 498/85/432 499/86/433 502/89/436
f 503/90/437 498/85/432 502/89/436
f 500/87/434 504/91/438 499/86/433
f 504/91/438 502/89/436 499/86/433
f 501/88/435 505/92/103 500/87/434
f 506/92/439 504/91/438 500/87/434
f 504/91/438 507/93/440 502/89/436
f 507/93/440 508/94/441 502/89/436
f 509/95/106 507/93/440 504/91/438
f 508/94/441 507/93/440 509/95/106
f 510/92/107 509/95/106 504/91/438
f 511/96/108 508/94/441 509/95/106
f 497/84/431 498/85/432 512/97/442
f 498/85/432 503/90/437 512/97/442
f 512/97/442 513/98/443 497/84/431
f 512/97/442 514/99/444 513/98/443
f 515/100/445 514/99/444 512/97/442
f 516/101/446 514/99/444 515/100/445
f 514/99/444 516/101/446 513/98/443
f 517/102/447 516/101/446 515/100/445
f 517/102/447 515/100/445 518/103/448
f 519/104/449 517/102/447 518/103/448
f 519/104/449 518/103/448 520/105/450
f 518/103/448 521/106/451 520/105/450
f 520/105/450 521/106/451 522/107/452
f 523/108/453 520/105/450 522/107/452
f 523/108/453 522/107/452 524/109/454
f 524/109/454 522/107/452 525/110/455
f 525/110/455 526/111/456 524/109/454
f 526/111/456 527/112/124 524/109/454
f 528/113/125 527/112/124 526/111/456
f 529/114/457 528/113/125 526/111/456
f 527/112/124 530/115/458 524/109/454
f 529/114/457 531/116/459 528/113/125
f 531/116/459 532/117/129 528/113/125
f 533/96/108 532/117/129 531/116/459
f 508/94/441 533/96/108 531/116/459
f 522/107/452 534/118/460 525/110/455
f 522/107/452 521/106/451 534/118/460
f 535/119/461 523/108/453 524/109/454
f 525/110/455 534/118/460 536/120/462
f 534/118/460 537/121/463 536/120/462
f 534/118/460 518/103/448 537/121/463
f 521/106/451 518/103/448 534/118/460
f 518/103/448 515/100/445 537/121/463
f 537/121/463 515/100/445 512/97/442
f 539/123/464 538/122/465 535/119/461
f 540/124/466 538/122/465 539/123/464
f 538/122/465 523/108/453 535/119/461
f 538/122/465 541/125/467 523/108/453
f 541/125/467 520/105/450 523/108/453
f 519/104/449 520/105/450 541/125/467
f 519/104/449 541/125/467 542/126/468
f 517/102/447 519/104/449 542/126/468
f 516/101/446 517/102/447 542/126/468
f 543/127/469 516/101/446 542/126/468
f 513/98/443 516/101/446 543/127/469
f 493/80/428 513/98/443 543/127/469
f 497/84/431 513/98/443 493/80/428
f 493/80/428 543/127/469 544/128/470
f 542/126/468 544/128/470 543/127/469
f 542/126/468 541/125/467 544/128/470
f 544/128/470 541/125/467 538/122/465
f 493/80/428 544/128/470 545/129/471
f 488/76/423 493/80/428 545/129/471
f 545/129/471 546/130/472 488/76/423
f 540/124/473 546/130/472 547/131/474
f 546/130/472 545/129/471 547/131/474
f 546/130/472 540/124/473 548/132/475
f 549/133/145 546/130/472 548/132/475
f 549/133/145 550/73/476 546/130/472
f 550/73/476 487/74/424 546/130/472
f 546/130/472 487/74/424 488/76/423
f 547/131/474 545/129/471 551/134/477
f 551/134/477 545/129/471 544/128/470
f 547/131/474 551/134/477 552/124/473
f 551/134/477 538/122/465 540/124/466
f 538/122/465 551/134/477 544/128/470
f 555/139/478 554/136/479 553/137/480
f 557/136/481 556/135/482 553/137/483
f 556/135/482 558/138/484 553/137/483
f 561/138/485 560/140/486 559/137/480
f 560/140/486 561/138/485 562/141/487
f 563/142/488 560/140/486 562/141/487
f 562/141/487 564/143/489 563/142/488
f 567/145/490 566/135/482 565/144/491
f 566/135/482 567/145/490 568/138/492
f 567/145/490 565/144/491 569/146/493
f 565/144/491 570/147/494 569/146/493
f 567/145/490 569/146/493 571/148/495
f 572/149/496 571/148/495 569/146/493
f 571/148/495 572/149/496 573/150/497
f 574/151/498 571/148/495 573/150/497
f 574/151/498 575/141/499 571/148/495
f 575/141/499 576/138/484 571/148/495
f 576/138/484 567/145/490 571/148/495
f 577/152/500 572/149/496 569/146/493
f 569/146/493 570/147/494 577/152/500
f 570/147/494 578/153/501 577/152/500
f 574/151/498 579/143/502 575/141/499
f 573/150/497 579/143/502 574/151/498
f 581/135/503 580/136/436 565/144/504
f 584/155/505 583/154/506 582/156/507
f 582/156/507 583/154/506 585/157/483
f 583/154/506 586/158/508 585/157/483
f 587/159/509 583/154/506 584/155/505
f 583/154/506 587/159/509 586/158/508
f 587/159/509 588/160/500 586/158/508
f 585/157/483 586/158/508 589/161/437
f 586/158/508 590/162/442 589/161/437
f 586/158/508 588/160/500 590/162/442
f 588/160/500 591/163/510 590/162/442
f 584/155/505 582/156/507 592/164/488
f 592/164/488 593/165/511 584/155/505
f 584/155/505 593/165/511 594/166/497
f 594/166/497 595/159/496 584/155/505
f 598/170/512 597/168/513 596/169/514
f 600/168/515 599/167/516 596/169/517
f 602/171/518 601/167/519 600/168/515
f 602/171/520 604/168/513 603/172/521
f 603/172/521 604/168/513 605/173/522
f 606/174/523 603/172/521 605/173/522
f 607/175/442 602/171/520 603/172/521
f 605/173/522 608/176/524 606/174/523
f 609/177/525 605/173/522 600/168/526
f 608/176/524 605/173/522 609/177/525
f 608/176/524 610/178/527 606/174/523
f 610/178/527 608/176/524 611/177/528
f 610/178/527 611/177/528 612/170/529
f 611/177/528 604/168/513 613/170/512
f 614/179/530 610/178/531 613/170/512
f 614/179/530 613/170/512 615/180/532
f 615/180/532 613/170/512 607/175/533
f 613/170/512 616/181/534 607/175/533
f 617/182/535 615/180/532 607/175/533
f 614/179/530 618/183/536 610/178/531
f 619/183/537 606/174/523 610/178/527
f 620/184/538 615/180/532 617/182/535
f 621/185/539 620/184/538 617/182/535
f 617/182/535 622/172/540 621/185/539
f 622/172/540 623/174/523 621/185/539
f 617/182/535 624/175/533 622/172/540
f 625/183/537 614/179/530 621/185/539
f 627/180/541 620/184/538 626/179/530
f 628/185/542 626/179/530 620/184/538
f 630/174/523 629/183/543 621/185/544
f 633/189/545 632/187/546 631/188/215
f 632/187/546 634/186/213 631/188/215
f 635/190/547 632/187/546 633/189/545
f 636/191/548 635/190/547 633/189/545
f 637/192/549 635/190/547 636/191/548
f 638/193/454 637/192/549 636/191/548
f 639/194/219 637/192/549 638/193/454
f 256/195/220 639/194/219 638/193/454
f 635/190/547 640/196/550 632/187/546
f 640/196/550 641/197/551 632/187/546
f 642/198/552 641/197/551 640/196/550
f 643/199/553 642/198/552 640/196/550
f 642/198/552 643/199/553 644/200/554
f 645/201/555 642/198/552 644/200/554
f 645/201/555 644/200/554 646/202/556
f 647/203/557 645/201/555 646/202/556
f 647/203/557 646/202/556 648/204/558
f 649/205/559 647/203/557 648/204/558
f 649/205/559 648/204/558 650/206/560
f 651/207/561 649/205/559 650/206/560
f 651/207/561 650/206/560 652/208/562
f 653/209/563 651/207/561 652/208/562
f 653/209/563 652/208/562 654/210/564
f 655/211/565 653/209/563 654/210/564
f 655/211/565 654/210/564 656/212/566
f 657/213/567 655/211/565 656/212/566
f 658/214/568 655/211/565 657/213/567
f 659/215/569 658/214/568 657/213/567
f 660/216/241 659/215/569 657/213/567
f 661/217/242 659/215/569 660/216/241
f 654/210/564 662/218/570 656/212/566
f 654/210/564 652/208/562 662/218/570
f 656/212/566 662/218/570 663/219/571
f 662/218/570 664/220/572 663/219/571
f 664/220/572 665/221/573 663/219/571
f 658/214/568 666/222/574 655/211/565
f 666/222/574 653/209/563 655/211/565
f 659/215/569 667/223/575 658/214/568
f 667/223/575 666/222/574 658/214/568
f 661/217/242 668/224/249 659/215/569
f 668/224/249 667/223/575 659/215/569
f 664/220/572 669/225/576 665/221/573
f 669/225/576 670/226/577 665/221/573
f 662/218/570 671/227/578 664/220/572
f 671/227/578 669/225/576 664/220/572
f 652/208/562 671/227/578 662/218/570
f 667/223/575 672/228/579 666/222/574
f 672/228/579 673/229/580 666/222/574
f 666/222/574 673/229/580 653/209/563
f 673/229/580 651/207/561 653/209/563
f 668/224/249 674/230/255 667/223/575
f 674/230/255 672/228/579 667/223/575
f 669/225/576 675/231/581 670/226/577
f 675/231/581 676/232/582 670/226/577
f 671/227/578 677/233/583 669/225/576
f 677/233/583 675/231/581 669/225/576
f 652/208/562 650/206/560 671/227/578
f 650/206/560 677/233/583 671/227/578
f 673/229/580 678/234/584 651/207/561
f 678/234/584 649/205/559 651/207/561
f 672/228/579 679/235/585 673/229/580
f 679/235/585 678/234/584 673/229/580
f 680/236/5 679/235/585 672/228/579
f 681/230/255 680/236/5 672/228/579
f 675/231/581 682/237/586 676/232/582
f 682/237/586 683/238/587 676/232/582
f 677/233/583 684/239/588 675/231/581
f 684/239/588 682/237/586 675/231/581
f 650/206/560 648/204/558 677/233/583
f 648/204/558 684/239/588 677/233/583
f 678/234/584 685/240/589 649/205/559
f 685/240/589 647/203/557 649/205/559
f 679/235/585 686/241/590 678/234/584
f 686/241/590 685/240/589 678/234/584
f 680/236/5 687/242/266 679/235/585
f 687/242/266 686/241/590 679/235/585
f 682/237/586 688/243/591 683/238/587
f 688/243/591 689/244/592 683/238/587
f 684/239/588 690/245/593 682/237/586
f 690/245/593 688/243/591 682/237/586
f 648/204/558 646/202/556 684/239/588
f 646/202/556 690/245/593 684/239/588
f 685/240/589 691/246/594 647/203/557
f 691/246/594 645/201/555 647/203/557
f 686/241/590 692/247/595 685/240/589
f 692/247/595 691/246/594 685/240/589
f 687/242/266 693/248/272 686/241/590
f 693/248/272 692/247/595 686/241/590
f 688/243/591 694/249/596 689/244/592
f 694/249/596 695/250/597 689/244/592
f 689/244/592 695/250/597 696/251/598
f 695/250/597 697/252/599 696/251/598
f 690/245/593 698/253/600 688/243/591
f 698/253/600 694/249/596 688/243/591
f 646/202/556 644/200/554 690/245/593
f 644/200/554 698/253/600 690/245/593
f 691/246/594 699/254/601 645/201/555
f 699/254/601 642/198/552 645/201/555
f 692/247/595 700/255/602 691/246/594
f 700/255/602 699/254/601 691/246/594
f 693/248/272 701/256/280 692/247/595
f 701/256/280 700/255/602 692/247/595
f 695/250/597 702/257/603 697/252/599
f 702/257/603 703/258/604 697/252/599
f 697/252/599 703/258/604 704/259/605
f 696/251/598 697/252/599 704/259/605
f 703/258/604 705/260/606 704/259/605
f 704/259/605 705/260/606 706/261/285
f 705/260/606 707/262/286 706/261/285
f 694/249/596 708/263/607 695/250/597
f 708/263/607 702/257/603 695/250/597
f 698/253/600 709/264/608 694/249/596
f 709/264/608 708/263/607 694/249/596
f 642/198/552 699/254/601 641/197/551
f 699/254/601 710/265/609 641/197/551
f 699/254/601 700/255/602 710/265/609
f 700/255/602 711/266/610 710/265/609
f 700/255/602 701/256/280 711/266/610
f 701/256/280 712/267/291 711/266/610
f 707/262/286 705/260/606 713/268/292
f 705/260/606 714/269/611 713/268/292
f 705/260/606 703/258/604 714/269/611
f 703/258/604 715/270/612 714/269/611
f 703/258/604 702/257/603 715/270/612
f 702/257/603 716/271/613 715/270/612
f 702/257/603 708/263/607 716/271/613
f 708/263/607 717/272/614 716/271/613
f 708/263/607 709/264/608 717/272/614
f 709/264/608 718/273/615 717/272/614
f 709/264/608 643/199/553 718/273/615
f 643/199/553 640/196/550 718/273/615
f 641/197/551 710/265/609 632/187/546
f 632/187/546 710/265/609 634/186/213
f 710/265/609 711/266/610 634/186/213
f 711/266/610 712/267/291 634/186/213
f 713/268/292 714/269/611 639/194/219
f 714/269/611 715/270/612 639/194/219
f 639/194/219 715/270/612 637/192/549
f 715/270/612 716/271/613 637/192/549
f 716/271/613 717/272/614 637/192/549
f 637/192/549 717/272/614 635/190/547
f 717/272/614 718/273/615 635/190/547
f 718/273/615 640/196/550 635/190/547
f 720/275/616 719/274/373 643/199/553
f 721/276/617 720/275/616 643/199/553
f 643/199/553 709/264/608 721/276/617
f 709/264/608 722/277/618 721/276/617
f 723/274/354 644/200/554 643/199/553
f 725/274/619 724/278/620 644/200/554
f 724/278/620 698/253/600 644/200/554
f 698/253/600 724/278/620 709/264/608
f 724/278/620 726/277/342 709/264/608
f 656/212/566 727/279/621 657/213/567
f 657/213/567 727/279/621 660/216/241
f 729/280/303 727/279/621 728/281/622
f 729/280/303 730/216/305 727/279/621
f 728/281/622 731/282/623 729/280/303
f 731/282/623 732/283/307 729/280/303
f 733/284/624 731/282/623 728/281/622
f 665/221/573 733/284/624 728/281/622
f 663/219/571 665/221/573 728/281/622
f 733/284/624 734/285/625 731/282/623
f 733/284/624 665/221/573 734/285/625
f 734/285/625 735/286/626 731/282/623
f 665/221/573 670/226/577 734/285/625
f 734/285/625 670/226/577 736/287/627
f 670/226/577 676/232/582 736/287/627
f 736/287/627 676/232/582 737/288/628
f 676/232/582 683/238/587 737/288/628
f 737/288/628 683/238/587 696/251/598
f 683/238/587 689/244/592 696/251/598
f 735/286/626 734/285/625 738/289/629
f 734/285/625 736/287/627 738/289/629
f 738/289/629 736/287/627 739/290/630
f 736/287/627 737/288/628 739/290/630
f 739/290/630 737/288/628 740/291/631
f 737/288/628 696/251/598 740/291/631
f 740/291/631 696/251/598 704/259/605
f 740/291/631 704/259/605 706/261/285
f 739/290/630 740/291/631 741/292/632
f 741/292/632 740/291/631 742/261/285
f 743/293/633 739/290/630 741/292/632
f 744/294/318 739/290/630 743/293/633
f 739/290/630 744/294/318 738/289/629
f 738/289/629 745/294/318 735/286/626
f 744/294/318 746/295/634 735/286/626
f 735/286/626 746/295/634 731/282/623
f 731/282/623 746/295/634 732/283/307
f 747/316/337 732/283/307 746/295/634
f 750/299/384 749/297/622 748/298/635
f 749/297/622 751/296/621 748/298/635
f 748/298/635 751/296/621 752/300/390
f 751/296/621 753/301/636 752/300/390
f 752/300/395 755/301/637 754/302/638
f 754/302/388 757/301/636 756/303/386
f 757/301/636 758/304/571 756/303/386
f 761/306/386 760/305/639 759/299/640
f 760/305/639 762/297/622 759/299/640
f 765/124/473 764/124/136 763/132/144
f 766/123/135 764/124/136 765/124/473
f 767/123/641 766/123/135 765/124/473
f 770/317/215 769/318/642 768/319/464
f 773/320/5 772/321/643 771/322/5
f 772/321/643 774/323/644 771/322/5
f 773/320/5 771/322/5 775/324/5
f 776/325/5 773/320/5 775/324/5
f 772/321/643 777/326/645 774/323/644
f 780/327/646 779/328/647 778/329/646
f 779/328/647 781/330/648 778/329/646
f 780/327/646 778/329/646 782/331/646
f 783/332/646 780/327/646 782/331/646
f 779/328/647 784/333/649 781/330/648
f 787/334/650 786/335/651 785/336/652
f 786/335/651 788/337/653 785/336/652
f 787/334/650 785/336/652 789/338/646
f 790/339/646 787/334/650 789/338/646
f 786/335/651 791/340/646 788/337/653
f 794/341/654 793/342/655 792/343/646
f 793/342/655 795/344/646 792/343/646
f 792/343/646 795/344/646 796/345/646
f 795/344/646 797/346/646 796/345/646
f 798/347/656 793/342/655 794/341/654
f 801/348/657 800/349/658 799/350/5
f 800/349/658 802/351/5 799/350/5
f 799/350/5 802/351/5 803/352/5
f 802/351/5 804/353/5 803/352/5
f 805/354/659 800/349/658 801/348/657
f 808/355/660 807/356/661 806/357/662
f 807/356/661 809/358/663 806/357/662
f 806/357/662 809/358/663 810/359/5
f 809/358/663 811/360/5 810/359/5
f 812/361/5 807/356/661 808/355/660
f 815/4/664 814/2/665 813/3/666
f 814/2/665 816/1/667 813/3/666
f 813/3/666 816/1/667 817/5/646
f 816/1/667 818/6/646 817/5/646
f 819/7/646 814/2/665 815/4/664
